<?xml version="1.0" encoding="UTF-8" standalone="no"?>
<!-- Generator: Adobe Illustrator 19.1.0, SVG Export Plug-In . SVG Version: 6.00 Build 0)  -->

<svg
   xmlns:dc="http://purl.org/dc/elements/1.1/"
   xmlns:cc="http://creativecommons.org/ns#"
   xmlns:rdf="http://www.w3.org/1999/02/22-rdf-syntax-ns#"
   xmlns:svg="http://www.w3.org/2000/svg"
   xmlns="http://www.w3.org/2000/svg"
   xmlns:xlink="http://www.w3.org/1999/xlink"
   xmlns:sodipodi="http://sodipodi.sourceforge.net/DTD/sodipodi-0.dtd"
   xmlns:inkscape="http://www.inkscape.org/namespaces/inkscape"
   version="1.1"
   id="Layer_1"
   x="0px"
   y="0px"
   viewBox="0 0 311.65588 100"
   xml:space="preserve"
   sodipodi:docname="logo-text.svg"
   width="311.65588"
   height="100"
   inkscape:version="0.92.5 (2060ec1f9f, 2020-04-08)"
   inkscape:export-filename="D:\Data\coles\Pictures\KTDis\logo-text.png"
   inkscape:export-xdpi="600.96002"
   inkscape:export-ydpi="600.96002"><metadata
   id="metadata102"><rdf:RDF><cc:Work
       rdf:about=""><dc:format>image/svg+xml</dc:format><dc:type
         rdf:resource="http://purl.org/dc/dcmitype/StillImage" /><dc:title></dc:title></cc:Work></rdf:RDF></metadata><defs
   id="defs100">

		<linearGradient
   gradientTransform="matrix(1,0,0,-1,0,61)"
   y2="15.3332"
   x2="44.306801"
   y1="-13.0143"
   x1="15.9594"
   gradientUnits="userSpaceOnUse"
   id="XMLID_3_">
		<stop
   id="stop57"
   style="stop-color:#0095D5"
   offset="9.677000e-02" />
		<stop
   id="stop59"
   style="stop-color:#238AD9"
   offset="0.3007" />
		<stop
   id="stop61"
   style="stop-color:#557BDE"
   offset="0.6211" />
		<stop
   id="stop63"
   style="stop-color:#7472E2"
   offset="0.8643" />
		<stop
   id="stop65"
   style="stop-color:#806EE3"
   offset="1" />
	</linearGradient>
	

		<linearGradient
   gradientTransform="matrix(1,0,0,-1,0,61)"
   y2="65.404999"
   x2="20.673401"
   y1="48.940899"
   x1="4.2091999"
   gradientUnits="userSpaceOnUse"
   id="SVGID_1_"
   xlink:href="#SVGID_2_">
		<stop
   id="stop69"
   style="stop-color:#0095D5"
   offset="0.1183" />
		<stop
   id="stop71"
   style="stop-color:#3C83DC"
   offset="0.4178" />
		<stop
   id="stop73"
   style="stop-color:#6D74E1"
   offset="0.6962" />
		<stop
   id="stop75"
   style="stop-color:#806EE3"
   offset="0.8333" />
	</linearGradient>
	

		<linearGradient
   gradientTransform="matrix(1,0,0,-1,0,61)"
   y2="61.669399"
   x2="45.731499"
   y1="5.8362002"
   x1="-10.1017"
   gradientUnits="userSpaceOnUse"
   id="SVGID_2_">
		<stop
   id="stop80"
   style="stop-color:#C757BC"
   offset="0.1075" />
		<stop
   id="stop82"
   style="stop-color:#D0609A"
   offset="0.2138" />
		<stop
   id="stop84"
   style="stop-color:#E1725C"
   offset="0.4254" />
		<stop
   id="stop86"
   style="stop-color:#EE7E2F"
   offset="0.6048" />
		<stop
   id="stop88"
   style="stop-color:#F58613"
   offset="0.743" />
		<stop
   id="stop90"
   style="stop-color:#F88909"
   offset="0.8232" />
	</linearGradient>
	
</defs><sodipodi:namedview
   pagecolor="#ffffff"
   bordercolor="#666666"
   borderopacity="1"
   objecttolerance="10"
   gridtolerance="10"
   guidetolerance="10"
   inkscape:pageopacity="0"
   inkscape:pageshadow="2"
   inkscape:window-width="1920"
   inkscape:window-height="1017"
   id="namedview98"
   showgrid="false"
   inkscape:snap-page="false"
   fit-margin-top="0"
   inkscape:zoom="2.8284272"
   inkscape:cx="167.40441"
   inkscape:cy="79.492771"
   inkscape:window-x="1072"
   inkscape:window-y="520"
   inkscape:window-maximized="1"
   inkscape:current-layer="layer3"
   fit-margin-bottom="0"
   fit-margin-right="5"
   fit-margin-left="0"
   inkscape:pagecheckerboard="false" />

<g
   inkscape:groupmode="layer"
   id="layer3"
   inkscape:label="Square"
   transform="translate(0,-2.8610229e-6)"><rect
     style="display:inline;fill:#7289da;fill-opacity:1;stroke-width:4.94430399"
     id="rect838"
     width="100"
     height="100"
     x="0"
     y="2.8610229e-06"
     ry="14.318913" /><g
     style="fill:#fff9e8;fill-opacity:1"
     id="g926"
     transform="matrix(1.5151099,0,0,1.5151099,-58.769399,-12.709325)"><path
       d="m 118.86477,24.354019 v -10.48 h -7.2 v 28.32 h 7.2 v -9.8 l 0.24,-0.32 7.24,10.12 h 9.08 l -11.16,-14.64 11.2,-13.68 h -8.92 z"
       style="font-style:normal;font-variant:normal;font-weight:900;font-stretch:normal;font-size:40px;line-height:1.25;font-family:'Uni Sans';-inkscape-font-specification:'Uni Sans Heavy';letter-spacing:0px;word-spacing:0px;fill:#fff9e8;fill-opacity:1;stroke:none"
       id="path880"
       inkscape:connector-curvature="0" /><path
       d="m 134.89102,32.874019 c 0,6.48 5.88,9.72 11.76,9.72 5.88,0 11.72,-3.24 11.72,-9.72 v -9.68 c 0,-6.48 -5.88,-9.72 -11.76,-9.72 -5.88,0 -11.72,3.2 -11.72,9.72 z m 7.16,-9.68 c 0,-2.08 2.24,-3.2 4.48,-3.2 2.32,0 4.68,1 4.68,3.2 v 9.68 c 0,2.04 -2.28,3.08 -4.56,3.08 -2.28,0 -4.6,-1 -4.6,-3.08 z"
       style="font-style:normal;font-variant:normal;font-weight:900;font-stretch:normal;font-size:40px;line-height:1.25;font-family:'Uni Sans';-inkscape-font-specification:'Uni Sans Heavy';letter-spacing:0px;word-spacing:0px;fill:#fff9e8;fill-opacity:1;stroke:none"
       id="path882"
       inkscape:connector-curvature="0" /><path
       d="m 182.49914,20.634019 v -6.8 h -22.28 v 6.8 h 7.52 v 21.56 h 7.24 v -21.56 z"
       style="font-style:normal;font-variant:normal;font-weight:900;font-stretch:normal;font-size:40px;line-height:1.25;font-family:'Uni Sans';-inkscape-font-specification:'Uni Sans Heavy';letter-spacing:0px;word-spacing:0px;fill:#fff9e8;fill-opacity:1;stroke:none"
       id="path884"
       inkscape:connector-curvature="0" /><path
       d="m 185.33664,42.194019 h 18.72 v -7.08 h -11.52 v -21.24 h -7.2 z"
       style="font-style:normal;font-variant:normal;font-weight:900;font-stretch:normal;font-size:40px;line-height:1.25;font-family:'Uni Sans';-inkscape-font-specification:'Uni Sans Heavy';letter-spacing:0px;word-spacing:0px;fill:#fff9e8;fill-opacity:1;stroke:none"
       id="path886"
       inkscape:connector-curvature="0" /><path
       d="m 214.05914,13.874019 h -7.16 v 28.32 h 7.16 z"
       style="font-style:normal;font-variant:normal;font-weight:900;font-stretch:normal;font-size:40px;line-height:1.25;font-family:'Uni Sans';-inkscape-font-specification:'Uni Sans Heavy';letter-spacing:0px;word-spacing:0px;fill:#fff9e8;fill-opacity:1;stroke:none"
       id="path888"
       inkscape:connector-curvature="0" /><path
       d="m 218.53977,42.194019 h 7.16 v -11.32 l -0.92,-5.48 0.2,-0.04 2.48,5.68 6.4,11.16 h 7.24 v -28.32 h -7.12 v 12.84 c 0.04,0 0.76,4.88 0.8,4.88 l -0.2,0.04 -2.4,-5.68 -6.84,-12.08 h -6.8 z"
       style="font-style:normal;font-variant:normal;font-weight:900;font-stretch:normal;font-size:40px;line-height:1.25;font-family:'Uni Sans';-inkscape-font-specification:'Uni Sans Heavy';letter-spacing:0px;word-spacing:0px;fill:#fff9e8;fill-opacity:1;stroke:none"
       id="path890"
       inkscape:connector-curvature="0" /></g><g
     style="fill:#cbd6ff;fill-opacity:1"
     id="g935"
     transform="matrix(1.2491701,0,0,1.250015,-29.423883,-12.435288)"><path
       d="m 111.94562,55.062989 v 28.32 h 10.6 c 5.68,0.04 11,-2.8 11,-9.32 v -9.52 c 0,-6.6 -5.32,-9.48 -11,-9.48 z m 7.2,21.6 v -14.92 h 3.64 c 2.4,0 3.56,1.16 3.56,3 v 8.84 c 0,1.84 -1.12,3.08 -3.56,3.08 z"
       style="font-style:normal;font-variant:normal;font-weight:900;font-stretch:normal;font-size:40px;line-height:1.25;font-family:'Uni Sans';-inkscape-font-specification:'Uni Sans Heavy';letter-spacing:0px;word-spacing:0px;fill:#cbd6ff;fill-opacity:1;stroke:none"
       id="path892"
       inkscape:connector-curvature="0" /><path
       d="m 144.57437,55.062989 h -7.16 v 28.32 h 7.16 z"
       style="font-style:normal;font-variant:normal;font-weight:900;font-stretch:normal;font-size:40px;line-height:1.25;font-family:'Uni Sans';-inkscape-font-specification:'Uni Sans Heavy';letter-spacing:0px;word-spacing:0px;fill:#cbd6ff;fill-opacity:1;stroke:none"
       id="path894"
       inkscape:connector-curvature="0" /><path
       d="m 147.695,78.662989 c 2.64,3.4 6.24,5.12 9.64,5.12 5.2,0 10.96,-3 11.2,-8.48 0.32,-6.96 -4.72,-8.72 -9.76,-9.64 -2.2,-0.48 -3.68,-1.28 -3.76,-2.64 0.12,-3.28 5.2,-3.4 8.16,-0.24 l 4.68,-3.6 c -2.92,-3.56 -6.24,-4.52 -9.68,-4.52 -5.2,0 -10.24,2.92 -10.24,8.48 0,5.4 4.16,8.28 8.72,9 2.32,0.32 4.92,1.24 4.84,2.84 -0.2,3.04 -6.44,2.88 -9.28,-0.56 z"
       style="font-style:normal;font-variant:normal;font-weight:900;font-stretch:normal;font-size:40px;line-height:1.25;font-family:'Uni Sans';-inkscape-font-specification:'Uni Sans Heavy';letter-spacing:0px;word-spacing:0px;fill:#cbd6ff;fill-opacity:1;stroke:none"
       id="path896"
       inkscape:connector-curvature="0" /><path
       d="m 186.07312,74.542989 c -1.56,3.92 -7.96,2.96 -7.96,-0.44 v -9.76 c 0,-3.52 6.32,-4.32 8.24,-0.8 l 5.84,-2.36 c -2.28,-5.04 -6.48,-6.52 -9.96,-6.52 -5.68,0 -11.28,3.28 -11.28,9.68 v 9.76 c 0,6.44 5.6,9.68 11.16,9.68 3.56,0 7.84,-1.76 10.2,-6.36 z"
       style="font-style:normal;font-variant:normal;font-weight:900;font-stretch:normal;font-size:40px;line-height:1.25;font-family:'Uni Sans';-inkscape-font-specification:'Uni Sans Heavy';letter-spacing:0px;word-spacing:0px;fill:#cbd6ff;fill-opacity:1;stroke:none"
       id="path898"
       inkscape:connector-curvature="0" /><path
       d="m 194.23437,74.062989 c 0,6.48 5.88,9.72 11.76,9.72 5.88,0 11.72,-3.24 11.72,-9.72 v -9.68 c 0,-6.48 -5.88,-9.72 -11.76,-9.72 -5.88,0 -11.72,3.2 -11.72,9.72 z m 7.16,-9.68 c 0,-2.08 2.24,-3.2 4.48,-3.2 2.32,0 4.68,1 4.68,3.2 v 9.68 c 0,2.04 -2.28,3.08 -4.56,3.08 -2.28,0 -4.6,-1 -4.6,-3.08 z"
       style="font-style:normal;font-variant:normal;font-weight:900;font-stretch:normal;font-size:40px;line-height:1.25;font-family:'Uni Sans';-inkscape-font-specification:'Uni Sans Heavy';letter-spacing:0px;word-spacing:0px;fill:#cbd6ff;fill-opacity:1;stroke:none"
       id="path900"
       inkscape:connector-curvature="0" /><path
       d="m 236.55687,83.382989 h 8.92 l -7.72,-9.72 c 3.44,-1.08 5.56,-4.04 5.56,-9.28 -0.16,-6.64 -4.68,-9.32 -10.52,-9.32 h -11.32 v 28.32 h 7.24 v -9 h 1.28 z m -7.84,-15.16 v -6.48 h 4.2 c 4.52,0 4.52,6.48 0,6.48 z"
       style="font-style:normal;font-variant:normal;font-weight:900;font-stretch:normal;font-size:40px;line-height:1.25;font-family:'Uni Sans';-inkscape-font-specification:'Uni Sans Heavy';letter-spacing:0px;word-spacing:0px;fill:#cbd6ff;fill-opacity:1;stroke:none"
       id="path902"
       inkscape:connector-curvature="0" /><path
       d="m 247.33625,55.062989 v 28.32 h 10.6 c 5.68,0.04 11,-2.8 11,-9.32 v -9.52 c 0,-6.6 -5.32,-9.48 -11,-9.48 z m 7.2,21.6 v -14.92 h 3.64 c 2.4,0 3.56,1.16 3.56,3 v 8.84 c 0,1.84 -1.12,3.08 -3.56,3.08 z"
       style="font-style:normal;font-variant:normal;font-weight:900;font-stretch:normal;font-size:40px;line-height:1.25;font-family:'Uni Sans';-inkscape-font-specification:'Uni Sans Heavy';letter-spacing:0px;word-spacing:0px;fill:#cbd6ff;fill-opacity:1;stroke:none"
       id="path904"
       inkscape:connector-curvature="0" /></g></g><g
   inkscape:groupmode="layer"
   id="layer1"
   inkscape:label="Shadow"
   style="display:inline"
   transform="translate(0,-2.8610229e-6)"><g
     id="g4665"
     transform="translate(-2,2)"><polygon
       points="30.1,29.9 60,60 0,60 "
       style="fill:#000000;fill-opacity:0.20392157"
       id="polygon4649"
       transform="translate(26,22)" /><polygon
       id="polygon4653"
       points="0,60 30.1,29.9 60,0 30.1,0 0,31.7 "
       style="fill:#000000;fill-opacity:0.20392157"
       transform="translate(26,22)" /></g></g><g
   inkscape:groupmode="layer"
   id="layer2"
   inkscape:label="Logo"
   style="display:inline"
   transform="translate(0,-2.8610229e-6)"><polygon
     points="0,60 30.1,29.9 60,60 "
     style="fill:#cbd6ff;fill-opacity:1"
     id="XMLID_2_"
     transform="translate(20,20)" /><polygon
     id="polygon78"
     points="0,0 30.1,0 0,32.5 "
     style="fill:#cbd6ff;fill-opacity:1"
     transform="translate(20,20)" /><polygon
     id="polygon93"
     points="0,31.7 0,60 30.1,29.9 60,0 30.1,0 "
     style="fill:#fff9e8;fill-opacity:1"
     transform="translate(20,20)" /></g></svg>