<?xml version="1.0" encoding="UTF-8" standalone="no"?>
<!DOCTYPE svg PUBLIC "-//W3C//DTD SVG 1.1//EN" "http://www.w3.org/Graphics/SVG/1.1/DTD/svg11.dtd">
<svg width="100%" height="100%" viewBox="0 0 100 100" version="1.1" xmlns="http://www.w3.org/2000/svg" xmlns:xlink="http://www.w3.org/1999/xlink" xml:space="preserve" xmlns:serif="http://www.serif.com/" style="fill-rule:evenodd;clip-rule:evenodd;stroke-linejoin:round;stroke-miterlimit:2;">
    <g id="Square">
        <path d="M100,25C100,11.202 88.798,0 75,0L25,0C11.202,0 0,11.202 0,25L0,75C0,88.798 11.202,100 25,100L75,100C88.798,100 100,88.798 100,75L100,25Z" style="fill:rgb(114,137,218);"/>
    </g>
    <g id="Shadow">
    </g>
    <g id="Shadow1" serif:id="Shadow">
        <g>
            <g id="polygon93" transform="matrix(0.82507,0,0,0.82507,37.1632,16.6)">
                <clipPath id="_clip1">
                    <rect x="-0.216" y="0" width="60.216" height="59.144"/>
                </clipPath>
                <g clip-path="url(#_clip1)">
                    <path d="M-0.601,60.216L30.1,29.9L60,0L30.926,0L-0.601,31.88L-0.601,60.216Z" style="fill-opacity:0.2;fill-rule:nonzero;"/>
                </g>
            </g>
            <g id="polygon931" serif:id="polygon93" transform="matrix(5.0521e-17,-0.82507,0.82507,5.0521e-17,36.985,90.9454)">
                <path d="M-0.601,60.216L30.1,29.9L60,0L30.926,0L-0.601,31.88L-0.601,60.216Z" style="fill-opacity:0.2;fill-rule:nonzero;"/>
            </g>
            <g transform="matrix(0.71424,0,0,1,-21.3992,9.3165)">
                <rect x="59.923" y="7.284" width="23.379" height="74.841" style="fill-opacity:0.2;"/>
            </g>
        </g>
    </g>
    <g transform="matrix(1,0,0,1,-0.556616,7.10543e-15)">
        <g id="Logo">
            <g>
                <g id="polygon932" serif:id="polygon93" transform="matrix(5.0521e-17,-0.82507,0.82507,5.0521e-17,33.508,86.9248)">
                    <path d="M-0.601,60.216L30.1,29.9L60,0L30.926,0L-0.601,31.88L-0.601,60.216Z" style="fill:rgb(255,241,203);fill-rule:nonzero;"/>
                </g>
                <g id="polygon933" serif:id="polygon93" transform="matrix(0.82507,0,0,0.82507,33.6861,12.5794)">
                    <path d="M-0.601,60.216L30.1,29.9L60,0L30.926,0L-0.601,31.88L-0.601,60.216Z" style="fill:rgb(255,249,232);fill-rule:nonzero;"/>
                </g>
                <g transform="matrix(0.71424,0,0,1,-24.8762,5.29591)">
                    <rect x="59.923" y="7.284" width="23.379" height="74.841" style="fill:rgb(203,214,255);"/>
                </g>
            </g>
        </g>
    </g>
    <g id="Logo1" serif:id="Logo">
    </g>
</svg>
