<?xml version="1.0" encoding="UTF-8" standalone="no"?><!DOCTYPE svg PUBLIC "-//W3C//DTD SVG 1.1//EN" "http://www.w3.org/Graphics/SVG/1.1/DTD/svg11.dtd"><svg width="100%" height="100%" viewBox="0 0 417 417" version="1.1" xmlns="http://www.w3.org/2000/svg" xmlns:xlink="http://www.w3.org/1999/xlink" xml:space="preserve" xmlns:serif="http://www.serif.com/" style="fill-rule:evenodd;clip-rule:evenodd;stroke-linejoin:round;stroke-miterlimit:2;"><circle id="Background" cx="208.333" cy="208.333" r="208.333" style="fill:#2c2f33;"/><path id="Shadow" d="M170.187,261.315l0,79.843l-53.52,0l0,-239.876l53.52,0l0,79.668l78.785,-79.668l76.885,0l-79.069,79.069l-40.614,40.105l39.514,39.514l80.169,81.188l-74.933,0l-80.737,-79.843Z" style="fill-opacity:0.2;fill-rule:nonzero;"/><g id="Logo"><path d="M272.279,287.106l-37.768,37.719l3.484,3.446l74.934,0l-40.65,-41.165Z" style="fill:#9e51ab;"/><path d="M236.825,251.201l-38.219,38.219l35.905,35.405l37.768,-37.719l-35.454,-35.905Z" style="fill:#4c82ff;"/><path d="M157.258,259.408l-53.52,53.509l0,15.354l53.52,0l0,-68.863Z" style="fill:#4ca667;"/><path d="M201.17,215.495l-38.391,38.393l35.827,35.532l38.219,-38.219l-35.655,-35.706Z" style="fill:#4ca667;"/><path d="M256.912,88.396l-153.174,153.173l0.012,71.348l53.508,-53.509l0,-10.979l5.521,5.459l38.391,-38.393l-7.925,-7.925l119.684,-119.174l-56.017,0Z" style="fill:#fff24c;"/><path d="M157.258,116.69l-53.508,53.509l0,71.359l153.162,-153.162l-20.869,0l-78.785,79.667l0,-51.373Z" style="fill:#ffae4c;"/><path d="M157.258,88.396l-53.52,0l0,81.818l53.52,-53.523l0,-28.295Z" style="fill:#ec4e4e;"/></g></svg>