<?xml version="1.0" encoding="UTF-8" standalone="no"?><!DOCTYPE svg PUBLIC "-//W3C//DTD SVG 1.1//EN" "http://www.w3.org/Graphics/SVG/1.1/DTD/svg11.dtd"><svg width="100%" height="100%" viewBox="0 0 4853 1014" version="1.1" xmlns="http://www.w3.org/2000/svg" xmlns:xlink="http://www.w3.org/1999/xlink" xml:space="preserve" xmlns:serif="http://www.serif.com/" style="fill-rule:evenodd;clip-rule:evenodd;stroke-linejoin:round;stroke-miterlimit:2;"><g id="Background"><rect x="0" y="0" width="4266.67" height="1013.33" style="fill:#7289da;"/><path d="M4852.98,0l0,1013.33l-1876.03,0l270.302,-1013.33l1605.73,0Z" style="fill:#627bd6;"/></g><g id="Logo"><circle cx="506.766" cy="506.667" r="316.54" style="fill:#7289da;stroke:#627bd6;stroke-width:20.83px;"/><g><clipPath id="_clip1"><rect id="polygon93" x="443.385" y="344.014" width="241.945" height="237.638"/></clipPath><g clip-path="url(#_clip1)"><path d="M441.838,585.959l123.355,-121.808l120.137,-120.137l-116.819,0l-126.673,128.093l0,113.852Z" style="fill-opacity:0.2;fill-rule:nonzero;"/></g><path id="polygon931" serif:id="polygon93" d="M685.33,708.479l-121.808,-123.355l-120.137,-120.137l0,116.818l128.093,126.674l113.852,0Z" style="fill-opacity:0.2;fill-rule:nonzero;"/><rect x="367.488" y="344.014" width="81.318" height="364.465" style="fill-opacity:0.2;"/></g><g><path id="polygon932" serif:id="polygon93" d="M665.686,688.899l-121.808,-123.355l-120.137,-120.137l0,116.819l128.093,126.673l113.852,0Z" style="fill:#fff1cb;fill-rule:nonzero;"/><path id="polygon933" serif:id="polygon93" d="M422.194,566.38l123.355,-121.809l120.137,-120.137l-116.818,0l-126.674,128.093l0,113.853Z" style="fill:#fff9e8;fill-rule:nonzero;"/><rect x="347.845" y="324.434" width="81.318" height="364.465" style="fill:#cbd6ff;"/></g></g><g id="Text"><path d="M1023.54,479.631l0,-57.136l-39.232,0l0,154.395l39.232,0l0,-53.427l1.309,-1.745l39.478,55.172l49.511,0l-60.853,-79.814l61.071,-74.581l-48.639,0l-41.877,57.136Z" style="fill:#fff;fill-rule:nonzero;"/><path d="M1111.03,526.092c0,35.325 32.039,52.979 64.11,52.979c32.071,0 63.893,-17.654 63.893,-52.979l0,-52.799c0,-35.326 -32.04,-52.979 -64.111,-52.979c-32.071,0 -63.892,17.436 -63.892,52.979l0,52.799Zm39.014,-52.799c0,-11.346 12.221,-17.454 24.442,-17.454c12.657,0 25.532,5.454 25.532,17.454l0,52.799c0,11.127 -12.439,16.8 -24.878,16.8c-12.439,0 -25.096,-5.455 -25.096,-16.8l0,-52.799Z" style="fill:#fff;fill-rule:nonzero;"/><path d="M1370.77,459.329l0,-37.052l-121.46,0l0,37.052l41.005,0l0,117.561l39.451,0l0,-117.561l41.004,0Z" style="fill:#fff;fill-rule:nonzero;"/><path d="M1386.06,576.89l102.048,0l0,-38.578l-62.815,0l0,-115.817l-39.233,0l0,154.395Z" style="fill:#fff;fill-rule:nonzero;"/><rect x="1503.63" y="422.495" width="39.014" height="154.395" style="fill:#fff;fill-rule:nonzero;"/><path d="M1567.1,576.89l39.014,0l0,-61.714l-5.013,-29.876l1.09,-0.218l13.526,30.966l34.919,60.842l39.45,0l0,-154.395l-38.796,0l0,70.002c0.218,0 4.141,26.604 4.359,26.604l-1.09,0.218l-13.09,-30.966l-37.317,-65.858l-37.052,0l0,154.395Z" style="fill:#fff;fill-rule:nonzero;"/><path d="M1754.23,422.495l0,154.395l57.785,0c30.979,0.218 59.967,-15.256 59.967,-50.797l0,-51.928c0,-35.978 -28.988,-51.67 -59.967,-51.67l-57.785,0Zm39.233,117.78l0,-81.383l19.861,0c13.096,0 19.426,6.328 19.426,16.364l0,48.219c0,10.036 -6.112,16.8 -19.426,16.8l-19.861,0Z" style="fill:#fff;fill-rule:nonzero;"/><rect x="1892.95" y="422.495" width="39.014" height="154.395" style="fill:#fff;fill-rule:nonzero;"/><path d="M1949.01,551.174c14.386,18.525 34.002,27.897 52.547,27.897c28.368,0 59.753,-16.346 61.061,-46.215c1.745,-37.963 -25.719,-47.563 -53.203,-52.581c-12.005,-2.618 -20.081,-6.981 -20.518,-14.399c0.655,-17.886 28.376,-18.539 44.515,-1.309l25.501,-19.628c-15.911,-19.395 -34.001,-24.625 -52.772,-24.625c-28.36,0 -55.822,15.909 -55.822,46.216c0,29.454 22.667,45.163 47.528,49.09c12.66,1.745 26.847,6.763 26.411,15.49c-1.091,16.577 -35.143,15.705 -50.618,-3.054l-24.63,23.118Z" style="fill:#fff;fill-rule:nonzero;"/><path d="M2158.15,528.71c-8.506,21.374 -43.403,16.143 -43.403,-2.4l0,-53.236c0,-19.196 34.461,-23.555 44.93,-4.363l31.844,-12.872c-12.432,-27.461 -35.334,-35.525 -54.309,-35.525c-30.966,0 -61.48,17.872 -61.48,52.76l0,53.236c0,35.107 30.514,52.761 60.826,52.761c19.411,0 42.749,-9.59 55.618,-34.654l-34.026,-15.707Z" style="fill:#fff;fill-rule:nonzero;"/><path d="M2202.67,526.092c0,35.325 32.04,52.979 64.111,52.979c32.071,0 63.892,-17.654 63.892,-52.979l0,-52.799c0,-35.326 -32.039,-52.979 -64.11,-52.979c-32.071,0 -63.893,17.436 -63.893,52.979l0,52.799Zm39.015,-52.799c0,-11.346 12.22,-17.454 24.441,-17.454c12.658,0 25.533,5.454 25.533,17.454l0,52.799c0,11.127 -12.439,16.8 -24.878,16.8c-12.439,0 -25.096,-5.455 -25.096,-16.8l0,-52.799Z" style="fill:#fff;fill-rule:nonzero;"/><path d="M2433.65,576.89l48.612,0l-42.074,-52.998c18.744,-5.884 30.296,-22.011 30.296,-50.593c-0.872,-36.201 -25.501,-50.804 -57.348,-50.804l-61.713,0l0,154.395l39.451,0l0,-49.075l6.984,0l35.792,49.075Zm-42.776,-82.637l0,-35.361l22.916,0c24.655,0 24.655,35.361 0,35.361l-22.916,0Z" style="fill:#fff;fill-rule:nonzero;"/><path d="M2492.32,422.495l0,154.395l57.785,0c30.979,0.218 59.967,-15.256 59.967,-50.797l0,-51.928c0,-35.978 -28.988,-51.67 -59.967,-51.67l-57.785,0Zm39.233,117.78l0,-81.383l19.862,0c13.096,0 19.425,6.328 19.425,16.364l0,48.219c0,10.036 -6.111,16.8 -19.425,16.8l-19.862,0Z" style="fill:#fff;fill-rule:nonzero;"/><path d="M2709.31,422.495l-39.45,0l0,102.73c-0.218,72.385 122.987,72.385 123.205,0l0,-102.73l-39.451,0l0,102.73c-0.218,24.86 -44.304,24.86 -44.304,0l0,-102.73Z" style="fill:#fff;fill-rule:nonzero;"/><path d="M2927.21,453.223c-10.679,-24.627 -33.568,-32.909 -53.646,-32.909c-30.543,0 -61.057,17.435 -61.057,52.334l0,52.993c0,35.559 30.514,53.43 61.057,53.43c30.979,0 60.621,-17.871 60.621,-53.43l0,-38.367l-62.149,0l0,32.689l24.661,0l0,5.678c0,24.008 -45.176,24.226 -45.176,0l0,-52.993c0,-20.297 34.483,-25.091 42.994,-4.366l32.695,-15.059Z" style="fill:#fff;fill-rule:nonzero;"/></g><g id="Discord"><g><path d="M3492.08,482.042c-8.8,0 -15.747,7.565 -15.747,16.983c0,9.417 7.101,16.982 15.747,16.982c8.8,0 15.747,-7.565 15.747,-16.982c0,-9.418 -7.102,-16.983 -15.747,-16.983Zm-56.35,0c-8.8,0 -15.748,7.565 -15.748,16.983c0,9.417 7.102,16.982 15.748,16.982c8.799,0 15.747,-7.565 15.747,-16.982c0.154,-9.418 -6.948,-16.983 -15.747,-16.983Z" style="fill:#fff;fill-rule:nonzero;"/><path d="M3567.11,353.595l-206.875,0c-17.446,0 -31.649,14.203 -31.649,31.648l0,206.875c0,17.446 14.203,31.649 31.649,31.649l175.072,0l-8.183,-28.252l19.761,18.217l18.681,17.137l33.347,28.87l0,-274.496c-0.154,-17.445 -14.358,-31.648 -31.803,-31.648Zm-59.593,199.927c0,0 -5.558,-6.638 -10.189,-12.35c20.224,-5.713 27.944,-18.218 27.944,-18.218c-6.33,4.169 -12.351,7.102 -17.755,9.109c-7.719,3.242 -15.129,5.249 -22.385,6.638c-14.821,2.779 -28.407,2.007 -39.986,-0.154c-8.8,-1.698 -16.365,-4.014 -22.695,-6.638c-3.55,-1.39 -7.41,-3.088 -11.27,-5.25c-0.463,-0.308 -0.926,-0.463 -1.389,-0.771c-0.309,-0.155 -0.463,-0.309 -0.618,-0.309c-2.778,-1.544 -4.322,-2.625 -4.322,-2.625c0,0 7.41,12.197 27.017,18.063c-4.632,5.867 -10.344,12.66 -10.344,12.66c-34.119,-1.081 -47.087,-23.312 -47.087,-23.312c0,-49.249 22.231,-89.235 22.231,-89.235c22.232,-16.519 43.228,-16.056 43.228,-16.056l1.544,1.853c-27.789,7.874 -40.449,20.07 -40.449,20.07c0,0 3.397,-1.853 9.109,-4.323c16.519,-7.256 29.642,-9.108 35.045,-9.726c0.926,-0.154 1.698,-0.309 2.625,-0.309c9.417,-1.235 20.07,-1.544 31.185,-0.308c14.667,1.698 30.414,6.021 46.47,14.666c0,0 -12.196,-11.579 -38.442,-19.452l2.162,-2.471c0,0 21.15,-0.463 43.227,16.056c0,0 22.232,39.986 22.232,89.235c0,-0.155 -12.969,22.077 -47.088,23.157Zm233.121,-133.851l-51.256,0l0,57.585l34.119,30.723l0,-55.887l18.217,0c11.579,0 17.292,5.558 17.292,14.512l0,42.764c0,8.955 -5.404,14.976 -17.292,14.976l-52.49,0l0,32.575l51.255,0c27.481,0.154 53.263,-13.586 53.263,-45.08l0,-46.007c0.154,-32.112 -25.628,-46.161 -53.108,-46.161Zm268.629,92.168l0,-47.242c0,-16.982 30.568,-20.842 39.831,-3.86l28.252,-11.424c-11.115,-24.393 -31.34,-31.495 -48.168,-31.495c-27.48,0 -54.652,15.902 -54.652,46.779l0,47.242c0,31.185 27.172,46.778 54.035,46.778c17.291,0 37.978,-8.491 49.403,-30.722l-30.26,-13.895c-7.41,18.989 -38.441,14.358 -38.441,-2.161Zm-93.403,-40.758c-10.652,-2.316 -17.754,-6.175 -18.217,-12.814c0.617,-15.901 25.164,-16.519 39.522,-1.235l22.695,-17.445c-14.204,-17.291 -30.26,-21.923 -46.779,-21.923c-25.164,0 -49.557,14.203 -49.557,41.066c0,26.091 20.07,40.14 42.147,43.537c11.27,1.544 23.775,6.021 23.466,13.74c-0.926,14.666 -31.185,13.895 -44.926,-2.779l-21.922,20.533c12.814,16.519 30.259,24.856 46.624,24.856c25.164,0 53.108,-14.512 54.189,-41.066c1.544,-33.502 -22.849,-41.993 -47.242,-46.47Zm-103.437,85.683l34.582,0l0,-137.093l-34.582,0l0,137.093Zm583.11,-137.093l-51.256,0l0,57.585l34.119,30.723l0,-55.887l18.217,0c11.579,0 17.291,5.558 17.291,14.512l0,42.764c0,8.955 -5.403,14.976 -17.291,14.976l-52.49,0l0,32.575l51.41,0c27.48,0.154 53.262,-13.586 53.262,-45.08l0,-46.007c0,-32.112 -25.782,-46.161 -53.262,-46.161Zm-251.493,-1.853c-28.406,0 -56.659,15.439 -56.659,47.088l0,46.778c0,31.34 28.407,47.087 56.968,47.087c28.407,0 56.659,-15.747 56.659,-47.087l0,-46.778c0,-31.495 -28.561,-47.088 -56.968,-47.088Zm22.232,93.866c0,9.881 -11.116,14.975 -22.077,14.975c-11.116,0 -22.232,-4.785 -22.232,-14.975l0,-46.778c0,-10.035 10.807,-15.439 21.614,-15.439c11.27,0 22.695,4.786 22.695,15.439l0,46.778Zm158.861,-46.778c-0.772,-32.112 -22.694,-45.081 -50.947,-45.081l-54.806,0l0,137.094l35.045,0l0,-43.537l6.176,0l31.803,43.537l43.227,0l-37.361,-47.087c16.519,-5.25 26.863,-19.607 26.863,-44.926Zm-50.329,18.526l-20.379,0l0,-31.34l20.379,0c21.768,0 21.768,31.34 0,31.34Z" style="fill:#fff;fill-rule:nonzero;"/></g><path d="M4577.03,429.284l58.113,60.102l-57.908,60.08" style="fill:none;stroke:#fff;stroke-width:20.83px;stroke-linecap:round;stroke-miterlimit:1.5;"/></g></svg>