<?xml version="1.0" encoding="UTF-8" standalone="no"?><!DOCTYPE svg PUBLIC "-//W3C//DTD SVG 1.1//EN" "http://www.w3.org/Graphics/SVG/1.1/DTD/svg11.dtd"><svg width="100%" height="100%" viewBox="0 0 417 417" version="1.1" xmlns="http://www.w3.org/2000/svg" xmlns:xlink="http://www.w3.org/1999/xlink" xml:space="preserve" xmlns:serif="http://www.serif.com/" style="fill-rule:evenodd;clip-rule:evenodd;stroke-linejoin:round;stroke-miterlimit:2;"><rect id="Background" x="0" y="0" width="416.667" height="416.667" style="fill:#2c2f33;"/><rect id="Shadow" x="88.335" y="136.25" width="273.496" height="177.192" style="fill-opacity:0.2;"/><g id="Envelope"><path d="M345.082,214.303l-83.06,83.06l83.06,-0.433l0,-82.627Z" style="fill:#9e51ab;"/><path d="M345.082,142.944l-153.987,153.986l70.927,0.433l83.06,-83.06l0,-71.359Z" style="fill:#4c82ff;"/><path d="M296.93,119.737l-177.194,177.193l71.359,0l153.987,-153.986l0,-23.207l-48.152,0Z" style="fill:#4ca667;"/><path d="M225.571,119.737l-153.984,153.983l0.014,23.21l48.136,0l177.193,-177.193l-71.359,0Z" style="fill:#fff24c;"/><path d="M154.212,119.737l-82.624,82.624l0,71.359l153.983,-153.983l-71.359,0Z" style="fill:#ffae4c;"/><path d="M71.601,119.737l0,82.61l82.611,-82.61l-82.611,0Z" style="fill:#ec4e4e;"/></g><g id="Gap"><path d="M189.954,226.713l-10.992,10.992l29.371,29.392l136.749,-136.833l0,-10.527l-11.749,0l-124.998,125.415l-18.381,-18.439Z" style="fill:#005a1b;"/><path d="M154.334,190.974l-11.041,11.04l35.669,35.691l10.992,-10.992l-35.62,-35.739Z" style="fill:#b3a600;"/><path d="M118.713,155.235l-11.089,11.09l35.669,35.689l11.041,-11.04l-35.621,-35.739Z" style="fill:#b36200;"/><path d="M118.824,155.125l-35.492,-35.388l-11.731,0l0,10.555l36.023,36.033l11.2,-11.2Z" style="fill:#a00202;"/></g></svg>