<?xml version="1.0" encoding="UTF-8" standalone="no"?><!DOCTYPE svg PUBLIC "-//W3C//DTD SVG 1.1//EN" "http://www.w3.org/Graphics/SVG/1.1/DTD/svg11.dtd"><svg width="100%" height="100%" viewBox="0 0 417 417" version="1.1" xmlns="http://www.w3.org/2000/svg" xmlns:xlink="http://www.w3.org/1999/xlink" xml:space="preserve" xmlns:serif="http://www.serif.com/" style="fill-rule:evenodd;clip-rule:evenodd;stroke-linejoin:round;stroke-miterlimit:2;"><g id="Square"><rect x="0" y="0" width="416.667" height="416.667" style="fill:#7289da;"/></g><g id="Logo"><g><clipPath id="_clip1"><rect id="polygon93" x="166.619" y="101.282" width="159.238" height="156.403"/></clipPath><g clip-path="url(#_clip1)"><path d="M165.601,260.52l81.187,-80.169l79.069,-79.069l-76.885,0l-83.371,84.305l0,74.933Z" style="fill-opacity:0.2;fill-rule:nonzero;"/></g><path id="polygon931" serif:id="polygon93" d="M325.857,341.158l-80.169,-81.188l-79.069,-79.069l0,76.886l84.305,83.371l74.933,0Z" style="fill-opacity:0.2;fill-rule:nonzero;"/><rect x="116.667" y="101.282" width="53.52" height="239.876" style="fill-opacity:0.2;"/></g><g><path id="polygon932" serif:id="polygon93" d="M312.929,328.271l-80.17,-81.187l-79.069,-79.069l0,76.885l84.306,83.371l74.933,0Z" style="fill:#fff1cb;fill-rule:nonzero;"/><path id="polygon933" serif:id="polygon93" d="M152.672,247.634l81.187,-80.169l79.07,-79.069l-76.886,0l-83.371,84.305l0,74.933Z" style="fill:#fff9e8;fill-rule:nonzero;"/><rect x="103.738" y="88.396" width="53.52" height="239.876" style="fill:#cbd6ff;"/></g></g></svg>