<?xml version="1.0" encoding="UTF-8" standalone="no"?><!DOCTYPE svg PUBLIC "-//W3C//DTD SVG 1.1//EN" "http://www.w3.org/Graphics/SVG/1.1/DTD/svg11.dtd"><svg width="100%" height="100%" viewBox="0 0 4853 1014" version="1.1" xmlns="http://www.w3.org/2000/svg" xmlns:xlink="http://www.w3.org/1999/xlink" xml:space="preserve" xmlns:serif="http://www.serif.com/" style="fill-rule:evenodd;clip-rule:evenodd;stroke-linejoin:round;stroke-miterlimit:2;"><g transform="matrix(4.16667,0,0,4.16667,0,0)"><g id="Background" transform="matrix(1,0,0,1,256,0)"><g transform="matrix(1,0,0,1,-256,0)"><rect x="0" y="0" width="1024" height="243.2" style="fill:#6d78f4;"/></g><g transform="matrix(1,0,0,1,-256,0)"><path d="M1164.72,0l-0,243.2l-450.248,0l64.873,-243.2l385.375,0Z" style="fill:#5865f2;"/></g></g><g id="Logo" transform="matrix(0.721981,0,0,0.721981,289.814,33.8071)"><g transform="matrix(1.61883,0,0,1.61883,-338.18,16.3763)"><circle cx="65" cy="65" r="65" style="fill:#5865f2;stroke:#627bd6;stroke-width:4.28px;"/></g><g transform="matrix(1.61883,0,0,1.61883,-313.898,40.6587)"><g id="polygon93" transform="matrix(0.82507,0,0,0.82507,37.1632,16.6)"><clipPath id="_clip1"><rect x="-0.216" y="-0" width="60.216" height="59.144"/></clipPath><g clip-path="url(#_clip1)"><path d="M-0.601,60.216l30.701,-30.316l29.9,-29.9l-29.074,0l-31.527,31.88l0,28.336Z" style="fill-opacity:0.2;fill-rule:nonzero;"/></g></g><g id="polygon931" serif:id="polygon93" transform="matrix(5.0521e-17,-0.82507,0.82507,5.0521e-17,36.985,90.9454)"><path d="M-0.601,60.216l30.701,-30.316l29.9,-29.9l-29.074,0l-31.527,31.88l0,28.336Z" style="fill-opacity:0.2;fill-rule:nonzero;"/></g><g transform="matrix(0.71424,0,0,1,-21.3992,9.3165)"><rect x="59.923" y="7.284" width="23.379" height="74.841" style="fill-opacity:0.2;"/></g></g><g transform="matrix(1.61883,0,0,1.61883,-314.799,40.6587)"><g id="polygon932" serif:id="polygon93" transform="matrix(5.0521e-17,-0.82507,0.82507,5.0521e-17,33.508,86.9248)"><path d="M-0.601,60.216l30.701,-30.316l29.9,-29.9l-29.074,0l-31.527,31.88l0,28.336Z" style="fill:#f8e1a0;fill-rule:nonzero;"/></g><g id="polygon933" serif:id="polygon93" transform="matrix(0.82507,0,0,0.82507,33.6861,12.5794)"><path d="M-0.601,60.216l30.701,-30.316l29.9,-29.9l-29.074,0l-31.527,31.88l0,28.336Z" style="fill:#fbf0d0;fill-rule:nonzero;"/></g><g transform="matrix(0.71424,0,0,1,-24.8762,5.29591)"><rect x="59.923" y="7.284" width="23.379" height="74.841" style="fill:#a2a9f8;"/></g></g></g><g transform="matrix(0.410293,0,0,0.410293,135.592,69.5292)"><g id="Text"><g transform="matrix(127.583,0,0,127.583,238.14,167.996)"><path d="M0.236,-0.446l-0,-0.262l-0.18,0l0,0.708l0.18,-0l-0,-0.245l0.006,-0.008l0.181,0.253l0.227,-0l-0.279,-0.366l0.28,-0.342l-0.223,0l-0.192,0.262Z" style="fill:#fff;fill-rule:nonzero;"/></g><g transform="matrix(127.583,0,0,127.583,314.434,167.996)"><path d="M0.039,-0.233c0,0.162 0.147,0.243 0.294,0.243c0.147,-0 0.293,-0.081 0.293,-0.243l-0,-0.242c-0,-0.162 -0.147,-0.243 -0.294,-0.243c-0.147,0 -0.293,0.08 -0.293,0.243l0,0.242Zm0.179,-0.242c-0,-0.052 0.056,-0.08 0.112,-0.08c0.058,-0 0.117,0.025 0.117,0.08l0,0.242c0,0.051 -0.057,0.077 -0.114,0.077c-0.057,0 -0.115,-0.025 -0.115,-0.077l-0,-0.242Z" style="fill:#fff;fill-rule:nonzero;"/></g><g transform="matrix(127.583,0,0,127.583,398.511,167.996)"><path d="M0.571,-0.539l-0,-0.17l-0.557,0l0,0.17l0.188,-0l0,0.539l0.181,-0l-0,-0.539l0.188,-0Z" style="fill:#fff;fill-rule:nonzero;"/></g><g transform="matrix(127.583,0,0,127.583,473.147,167.996)"><path d="M0.056,-0l0.468,-0l-0,-0.177l-0.288,0l-0,-0.531l-0.18,0l0,0.708Z" style="fill:#fff;fill-rule:nonzero;"/></g><g transform="matrix(127.583,0,0,127.583,541.915,167.996)"><rect x="0.056" y="-0.708" width="0.179" height="0.708" style="fill:#fff;fill-rule:nonzero;"/></g><g transform="matrix(127.583,0,0,127.583,579.041,167.996)"><path d="M0.056,-0l0.179,-0l-0,-0.283l-0.023,-0.137l0.005,-0.001l0.062,0.142l0.16,0.279l0.181,-0l-0,-0.708l-0.178,0l0,0.321c0.001,0 0.019,0.122 0.02,0.122l-0.005,0.001l-0.06,-0.142l-0.171,-0.302l-0.17,0l0,0.708Z" style="fill:#fff;fill-rule:nonzero;"/></g><g transform="matrix(127.583,0,0,127.583,688.508,167.996)"><path d="M0.056,-0.708l0,0.708l0.265,-0c0.142,0.001 0.275,-0.07 0.275,-0.233l-0,-0.238c-0,-0.165 -0.133,-0.237 -0.275,-0.237l-0.265,0Zm0.18,0.54l-0,-0.373l0.091,-0c0.06,-0 0.089,0.029 0.089,0.075l0,0.221c0,0.046 -0.028,0.077 -0.089,0.077l-0.091,0Z" style="fill:#fff;fill-rule:nonzero;"/></g><g transform="matrix(127.583,0,0,127.583,769.65,167.996)"><rect x="0.056" y="-0.708" width="0.179" height="0.708" style="fill:#fff;fill-rule:nonzero;"/></g><g transform="matrix(127.583,0,0,127.583,806.777,167.996)"><path d="M0.022,-0.118c0.066,0.085 0.156,0.128 0.241,0.128c0.13,-0 0.274,-0.075 0.28,-0.212c0.008,-0.174 -0.118,-0.218 -0.244,-0.241c-0.055,-0.012 -0.092,-0.032 -0.094,-0.066c0.003,-0.082 0.13,-0.085 0.204,-0.006l0.117,-0.09c-0.073,-0.089 -0.156,-0.113 -0.242,-0.113c-0.13,0 -0.256,0.073 -0.256,0.212c0,0.135 0.104,0.207 0.218,0.225c0.058,0.008 0.123,0.031 0.121,0.071c-0.005,0.076 -0.161,0.072 -0.232,-0.014l-0.113,0.106Z" style="fill:#fff;fill-rule:nonzero;"/></g><g transform="matrix(127.583,0,0,127.583,878.734,167.996)"><path d="M0.417,-0.221c-0.039,0.098 -0.199,0.074 -0.199,-0.011l-0,-0.244c-0,-0.088 0.158,-0.108 0.206,-0.02l0.146,-0.059c-0.057,-0.126 -0.162,-0.163 -0.249,-0.163c-0.142,0 -0.282,0.082 -0.282,0.242l0,0.244c0,0.161 0.14,0.242 0.279,0.242c0.089,-0 0.196,-0.044 0.255,-0.159l-0.156,-0.072Z" style="fill:#fff;fill-rule:nonzero;"/></g><g transform="matrix(127.583,0,0,127.583,952.987,167.996)"><path d="M0.039,-0.233c0,0.162 0.147,0.243 0.294,0.243c0.147,-0 0.293,-0.081 0.293,-0.243l-0,-0.242c-0,-0.162 -0.147,-0.243 -0.294,-0.243c-0.147,0 -0.293,0.08 -0.293,0.243l0,0.242Zm0.179,-0.242c-0,-0.052 0.056,-0.08 0.112,-0.08c0.058,-0 0.117,0.025 0.117,0.08l0,0.242c0,0.051 -0.057,0.077 -0.114,0.077c-0.057,0 -0.115,-0.025 -0.115,-0.077l-0,-0.242Z" style="fill:#fff;fill-rule:nonzero;"/></g><g transform="matrix(127.583,0,0,127.583,1037.83,167.996)"><path d="M0.433,-0l0.223,-0l-0.193,-0.243c0.086,-0.027 0.139,-0.101 0.139,-0.232c-0.004,-0.166 -0.117,-0.233 -0.263,-0.233l-0.283,0l0,0.708l0.181,-0l-0,-0.225l0.032,-0l0.164,0.225Zm-0.196,-0.379l-0,-0.162l0.105,-0c0.113,-0 0.113,0.162 0,0.162l-0.105,0Z" style="fill:#fff;fill-rule:nonzero;"/></g><g transform="matrix(127.583,0,0,127.583,1120.25,167.996)"><path d="M0.056,-0.708l0,0.708l0.265,-0c0.142,0.001 0.275,-0.07 0.275,-0.233l-0,-0.238c-0,-0.165 -0.133,-0.237 -0.275,-0.237l-0.265,0Zm0.18,0.54l-0,-0.373l0.091,-0c0.06,-0 0.089,0.029 0.089,0.075l0,0.221c0,0.046 -0.028,0.077 -0.089,0.077l-0.091,0Z" style="fill:#fff;fill-rule:nonzero;"/></g><g transform="matrix(127.583,0,0,127.583,1224.61,167.996)"><path d="M0.233,-0.708l-0.181,0l0,0.471c-0.001,0.332 0.564,0.332 0.565,0l-0,-0.471l-0.181,0l0,0.471c-0.001,0.114 -0.203,0.114 -0.203,0l-0,-0.471Z" style="fill:#fff;fill-rule:nonzero;"/></g><g transform="matrix(127.583,0,0,127.583,1309.71,167.996)"><path d="M0.565,-0.567c-0.049,-0.113 -0.154,-0.151 -0.246,-0.151c-0.14,0 -0.28,0.08 -0.28,0.24l0,0.243c0,0.163 0.14,0.245 0.28,0.245c0.142,-0 0.278,-0.082 0.278,-0.245l-0,-0.176l-0.285,0l-0,0.15l0.113,-0l0,0.026c0,0.11 -0.207,0.111 -0.207,-0l-0,-0.243c-0,-0.093 0.158,-0.115 0.197,-0.02l0.15,-0.069Z" style="fill:#fff;fill-rule:nonzero;"/></g></g></g><g id="Discord" transform="matrix(1.06801,0,0,1.06801,193.317,-8.2701)"><g transform="matrix(0.93632,0,0,0.93632,-163.601,8.02679)"><path d="M1091.55,102.726l13.947,14.424l-13.898,14.419" style="fill:none;stroke:#fff;stroke-width:5px;stroke-linecap:round;stroke-miterlimit:1.5;"/></g><g id="_364fc8a0ee7fcebf47ca6ebd16ec12f1.svg" serif:id="364fc8a0ee7fcebf47ca6ebd16ec12f1.svg" transform="matrix(0.93632,0,0,0.93632,698.752,116.067)"><g transform="matrix(1,0,0,1,-146,-40)"><clipPath id="_clip2"><rect x="0" y="0" width="292" height="80"/></clipPath><g clip-path="url(#_clip2)"><g><g><path d="M61.796,16.494c-4.722,-2.209 -9.772,-3.815 -15.05,-4.729c-0.649,1.172 -1.406,2.748 -1.928,4.002c-5.612,-0.844 -11.172,-0.844 -16.68,0c-0.522,-1.254 -1.297,-2.83 -1.951,-4.002c-5.284,0.914 -10.339,2.525 -15.061,4.741c-9.525,14.393 -12.107,28.428 -10.816,42.265c6.317,4.717 12.439,7.583 18.458,9.458c1.486,-2.045 2.812,-4.219 3.953,-6.511c-2.174,-0.826 -4.257,-1.845 -6.225,-3.029c0.522,-0.387 1.033,-0.791 1.526,-1.208c12.004,5.615 25.046,5.615 36.906,0c0.499,0.417 1.01,0.821 1.526,1.208c-1.974,1.189 -4.062,2.209 -6.237,3.035c1.142,2.286 2.462,4.466 3.953,6.511c6.025,-1.875 12.153,-4.741 18.47,-9.464c1.515,-16.04 -2.588,-29.947 -10.844,-42.277Zm-37.439,33.768c-3.604,-0 -6.558,-3.364 -6.558,-7.461c-0,-4.096 2.891,-7.466 6.558,-7.466c3.666,0 6.621,3.364 6.558,7.466c0.006,4.097 -2.892,7.461 -6.558,7.461Zm24.236,-0c-3.603,-0 -6.558,-3.364 -6.558,-7.461c-0,-4.096 2.892,-7.466 6.558,-7.466c3.667,0 6.622,3.364 6.558,7.466c0,4.097 -2.891,7.461 -6.558,7.461Z" style="fill:#fff;fill-rule:nonzero;"/><path d="M98.029,26.171l15.664,-0c3.776,-0 6.966,0.603 9.583,1.805c2.61,1.201 4.567,2.877 5.864,5.022c1.296,2.145 1.95,4.6 1.95,7.367c0,2.707 -0.677,5.163 -2.031,7.36c-1.354,2.204 -3.414,3.944 -6.185,5.228c-2.771,1.283 -6.203,1.928 -10.305,1.928l-14.54,-0l0,-28.71Zm14.379,21.414c2.542,-0 4.499,-0.651 5.864,-1.946c1.366,-1.301 2.049,-3.071 2.049,-5.315c0,-2.081 -0.609,-3.739 -1.825,-4.982c-1.216,-1.242 -3.058,-1.869 -5.52,-1.869l-4.9,-0l0,14.112l4.332,-0.001Z" style="fill:#fff;fill-rule:nonzero;"/><path d="M154.541,54.846c-2.169,-0.575 -4.126,-1.407 -5.864,-2.503l0,-6.81c1.314,1.038 3.075,1.893 5.284,2.567c2.209,0.668 4.344,1.002 6.409,1.002c0.964,0 1.693,-0.129 2.186,-0.386c0.494,-0.258 0.741,-0.569 0.741,-0.926c0,-0.41 -0.132,-0.75 -0.402,-1.026c-0.27,-0.275 -0.792,-0.504 -1.566,-0.697l-4.82,-1.108c-2.76,-0.656 -4.717,-1.565 -5.881,-2.731c-1.165,-1.16 -1.745,-2.684 -1.745,-4.571c0,-1.588 0.505,-2.965 1.527,-4.143c1.015,-1.178 2.461,-2.086 4.337,-2.725c1.877,-0.645 4.068,-0.967 6.587,-0.967c2.249,-0 4.309,0.246 6.186,0.738c1.876,0.493 3.425,1.12 4.659,1.887l0,6.441c-1.263,-0.768 -2.709,-1.371 -4.361,-1.829c-1.647,-0.451 -3.339,-0.674 -5.084,-0.674c-2.519,0 -3.775,0.44 -3.775,1.313c0,0.41 0.195,0.715 0.585,0.92c0.39,0.205 1.107,0.416 2.146,0.639l4.016,0.738c2.623,0.463 4.579,1.278 5.864,2.438c1.286,1.161 1.928,2.878 1.928,5.152c0,2.49 -1.061,4.465 -3.19,5.93c-2.129,1.465 -5.147,2.198 -9.06,2.198c-2.301,-0.006 -4.538,-0.293 -6.707,-0.867Z" style="fill:#fff;fill-rule:nonzero;"/><path d="M182.978,53.984c-2.3,-1.149 -4.039,-2.708 -5.198,-4.677c-1.159,-1.969 -1.744,-4.184 -1.744,-6.645c0,-2.462 0.602,-4.665 1.807,-6.605c1.205,-1.94 2.972,-3.464 5.302,-4.571c2.329,-1.108 5.112,-1.659 8.354,-1.659c4.016,0 7.35,0.862 10.001,2.585l0,7.507c-0.935,-0.656 -2.026,-1.19 -3.271,-1.6c-1.245,-0.41 -2.576,-0.615 -3.999,-0.615c-2.49,-0 -4.435,0.463 -5.841,1.395c-1.406,0.931 -2.111,2.144 -2.111,3.65c-0,1.477 0.682,2.685 2.048,3.634c1.366,0.944 3.345,1.418 5.944,1.418c1.337,0 2.657,-0.199 3.959,-0.592c1.297,-0.398 2.416,-0.885 3.351,-1.459l0,7.261c-2.943,1.805 -6.357,2.707 -10.242,2.707c-3.27,-0.011 -6.059,-0.586 -8.36,-1.734Z" style="fill:#fff;fill-rule:nonzero;"/><path d="M211.518,53.984c-2.318,-1.148 -4.085,-2.719 -5.302,-4.718c-1.216,-1.998 -1.83,-4.225 -1.83,-6.686c0,-2.462 0.608,-4.659 1.83,-6.587c1.222,-1.928 2.978,-3.44 5.285,-4.536c2.3,-1.096 5.049,-1.641 8.233,-1.641c3.185,-0 5.933,0.545 8.234,1.641c2.301,1.096 4.057,2.596 5.262,4.512c1.205,1.917 1.807,4.114 1.807,6.605c0,2.461 -0.602,4.688 -1.807,6.687c-1.205,1.998 -2.967,3.569 -5.285,4.717c-2.318,1.149 -5.055,1.723 -8.216,1.723c-3.162,0 -5.899,-0.568 -8.211,-1.717Zm12.204,-7.279c0.976,-0.996 1.469,-2.314 1.469,-3.955c0,-1.641 -0.488,-2.948 -1.469,-3.915c-0.975,-0.973 -2.307,-1.459 -3.993,-1.459c-1.716,-0 -3.059,0.486 -4.04,1.459c-0.975,0.973 -1.463,2.274 -1.463,3.915c-0,1.641 0.488,2.959 1.463,3.955c0.976,0.997 2.324,1.501 4.04,1.501c1.686,-0.006 3.018,-0.504 3.993,-1.501Z" style="fill:#fff;fill-rule:nonzero;"/><path d="M259.17,31.34l0,8.86c-1.021,-0.685 -2.341,-1.025 -3.976,-1.025c-2.141,-0 -3.793,0.662 -4.941,1.986c-1.153,1.325 -1.727,3.388 -1.727,6.177l0,7.548l-9.84,0l0,-23.998l9.64,0l-0,7.631c0.533,-2.79 1.4,-4.847 2.593,-6.177c1.188,-1.325 2.725,-1.987 4.596,-1.987c1.417,-0 2.634,0.328 3.655,0.984Z" style="fill:#fff;fill-rule:nonzero;"/><path d="M291.864,25.35l-0,29.537l-9.841,-0l0,-5.374c-0.832,2.022 -2.094,3.563 -3.792,4.618c-1.699,1.049 -3.799,1.576 -6.289,1.576c-2.226,0 -4.165,-0.551 -5.824,-1.658c-1.658,-1.108 -2.937,-2.626 -3.838,-4.554c-0.895,-1.928 -1.349,-4.108 -1.349,-6.546c-0.028,-2.514 0.448,-4.77 1.429,-6.769c0.976,-1.998 2.358,-3.557 4.137,-4.676c1.779,-1.12 3.81,-1.682 6.088,-1.682c4.688,-0 7.832,2.08 9.438,6.235l0,-10.707l9.841,0Zm-11.309,21.191c1.004,-0.996 1.503,-2.291 1.503,-3.873c0,-1.53 -0.488,-2.778 -1.463,-3.733c-0.976,-0.956 -2.313,-1.436 -3.994,-1.436c-1.658,-0 -2.983,0.486 -3.976,1.459c-0.993,0.973 -1.486,2.233 -1.486,3.792c0,1.559 0.493,2.83 1.486,3.815c0.993,0.984 2.301,1.477 3.936,1.477c1.658,-0.006 2.989,-0.504 3.994,-1.501Z" style="fill:#fff;fill-rule:nonzero;"/><path d="M139.382,33.443c2.709,0 4.906,-2.015 4.906,-4.501c0,-2.485 -2.197,-4.5 -4.906,-4.5c-2.71,-0 -4.906,2.015 -4.906,4.5c0,2.486 2.196,4.501 4.906,4.501Z" style="fill:#fff;fill-rule:nonzero;"/><path d="M134.472,36.544c3.006,1.324 6.736,1.382 9.811,-0.001l-0,18.472l-9.811,0l0,-18.472Z" style="fill:#fff;fill-rule:nonzero;"/></g></g></g></g></g></g></g></svg>