<?xml version="1.0" encoding="UTF-8" standalone="no"?><!DOCTYPE svg PUBLIC "-//W3C//DTD SVG 1.1//EN" "http://www.w3.org/Graphics/SVG/1.1/DTD/svg11.dtd"><svg width="100%" height="100%" viewBox="0 0 417 417" version="1.1" xmlns="http://www.w3.org/2000/svg" xmlns:xlink="http://www.w3.org/1999/xlink" xml:space="preserve" xmlns:serif="http://www.serif.com/" style="fill-rule:evenodd;clip-rule:evenodd;stroke-linejoin:round;stroke-miterlimit:2;"><rect id="Background" x="0" y="0" width="416.667" height="416.667" style="fill:#f8ef2a;"/><path id="Shadow" d="M170.187,261.315l0,79.843l-53.52,0l0,-239.876l53.52,0l0,79.668l78.785,-79.668l76.885,0l-79.069,79.069l-40.614,40.105l39.514,39.514l80.169,81.188l-74.933,0l-80.737,-79.843Z" style="fill-opacity:0.2;fill-rule:nonzero;"/><path id="Logo" d="M103.75,312.905l-0.012,-71.336l153.174,-153.173l56.017,0l-119.684,119.174l7.925,7.925l-0.002,0.003l43.89,43.936l-0.052,0.052l67.923,68.785l-74.934,0l-3.484,-3.446l-27.614,-27.23l-0.057,0.058l-44.045,-43.782l-0.016,0.017l-5.521,-5.459l0,79.842l-53.52,0l0,-15.354l0.012,-0.012Zm53.497,-196.202l0,51.36l78.785,-79.667l20.868,0l-153.162,153.162l0,-153.162l53.52,0l0,28.295l-0.011,0.012Z"/></svg>