<?xml version="1.0" encoding="UTF-8" standalone="no"?><!DOCTYPE svg PUBLIC "-//W3C//DTD SVG 1.1//EN" "http://www.w3.org/Graphics/SVG/1.1/DTD/svg11.dtd"><svg width="100%" height="100%" viewBox="0 0 1299 417" version="1.1" xmlns="http://www.w3.org/2000/svg" xmlns:xlink="http://www.w3.org/1999/xlink" xml:space="preserve" xmlns:serif="http://www.serif.com/" style="fill-rule:evenodd;clip-rule:evenodd;stroke-linejoin:round;stroke-miterlimit:2;"><g transform="matrix(4.16667,0,0,4.16667,0,0)"><g id="Text" transform="matrix(1,0,0,1,0,-2.86102e-06)"><g id="Discord" transform="matrix(1.24917,0,0,1.25002,-29.4239,-12.4353)"><path id="path892" d="M111.946,55.063l-0,28.32l10.6,-0c5.68,0.04 11,-2.8 11,-9.32l-0,-9.52c-0,-6.6 -5.32,-9.48 -11,-9.48l-10.6,-0Zm7.2,21.6l-0,-14.92l3.64,-0c2.4,-0 3.56,1.16 3.56,3l-0,8.84c-0,1.84 -1.12,3.08 -3.56,3.08l-3.64,-0Z" style="fill:#d0d4fb;fill-rule:nonzero;"/><rect id="path894" x="137.414" y="55.063" width="7.16" height="28.32" style="fill:#d0d4fb;fill-rule:nonzero;"/><path id="path896" d="M147.695,78.663c2.64,3.4 6.24,5.12 9.64,5.12c5.2,-0 10.96,-3 11.2,-8.48c0.32,-6.96 -4.72,-8.72 -9.76,-9.64c-2.2,-0.48 -3.68,-1.28 -3.76,-2.64c0.12,-3.28 5.2,-3.4 8.16,-0.24l4.68,-3.6c-2.92,-3.56 -6.24,-4.52 -9.68,-4.52c-5.2,-0 -10.24,2.92 -10.24,8.48c0,5.4 4.16,8.28 8.72,9c2.32,0.32 4.92,1.24 4.84,2.84c-0.2,3.04 -6.44,2.88 -9.28,-0.56l-4.52,4.24Z" style="fill:#d0d4fb;fill-rule:nonzero;"/><path id="path898" d="M186.073,74.543c-1.56,3.92 -7.96,2.96 -7.96,-0.44l0,-9.76c0,-3.52 6.32,-4.32 8.24,-0.8l5.84,-2.36c-2.28,-5.04 -6.48,-6.52 -9.96,-6.52c-5.68,-0 -11.28,3.28 -11.28,9.68l0,9.76c0,6.44 5.6,9.68 11.16,9.68c3.56,-0 7.84,-1.76 10.2,-6.36l-6.24,-2.88Z" style="fill:#d0d4fb;fill-rule:nonzero;"/><path id="path900" d="M194.234,74.063c0,6.48 5.88,9.72 11.76,9.72c5.88,-0 11.72,-3.24 11.72,-9.72l0,-9.68c0,-6.48 -5.88,-9.72 -11.76,-9.72c-5.88,-0 -11.72,3.2 -11.72,9.72l0,9.68Zm7.16,-9.68c0,-2.08 2.24,-3.2 4.48,-3.2c2.32,-0 4.68,1 4.68,3.2l0,9.68c0,2.04 -2.28,3.08 -4.56,3.08c-2.28,-0 -4.6,-1 -4.6,-3.08l0,-9.68Z" style="fill:#d0d4fb;fill-rule:nonzero;"/><path id="path902" d="M236.557,83.383l8.92,-0l-7.72,-9.72c3.44,-1.08 5.56,-4.04 5.56,-9.28c-0.16,-6.64 -4.68,-9.32 -10.52,-9.32l-11.32,-0l-0,28.32l7.24,-0l-0,-9l1.28,-0l6.56,9Zm-7.84,-15.16l-0,-6.48l4.2,-0c4.52,-0 4.52,6.48 -0,6.48l-4.2,-0Z" style="fill:#d0d4fb;fill-rule:nonzero;"/><path id="path904" d="M247.336,55.063l0,28.32l10.6,-0c5.68,0.04 11,-2.8 11,-9.32l0,-9.52c0,-6.6 -5.32,-9.48 -11,-9.48l-10.6,-0Zm7.2,21.6l0,-14.92l3.64,-0c2.4,-0 3.56,1.16 3.56,3l0,8.84c0,1.84 -1.12,3.08 -3.56,3.08l-3.64,-0Z" style="fill:#d0d4fb;fill-rule:nonzero;"/></g><g id="Kotlin" transform="matrix(1.51511,0,0,1.51511,-58.7694,-12.7093)"><path id="path880" d="M118.865,24.354l-0,-10.48l-7.2,0l-0,28.32l7.2,0l-0,-9.8l0.24,-0.32l7.24,10.12l9.08,0l-11.16,-14.64l11.2,-13.68l-8.92,0l-7.68,10.48Z" style="fill:#d0d4fb;fill-rule:nonzero;"/><path id="path882" d="M134.891,32.874c0,6.48 5.88,9.72 11.76,9.72c5.88,0 11.72,-3.24 11.72,-9.72l0,-9.68c0,-6.48 -5.88,-9.72 -11.76,-9.72c-5.88,0 -11.72,3.2 -11.72,9.72l0,9.68Zm7.16,-9.68c0,-2.08 2.24,-3.2 4.48,-3.2c2.32,0 4.68,1 4.68,3.2l0,9.68c0,2.04 -2.28,3.08 -4.56,3.08c-2.28,0 -4.6,-1 -4.6,-3.08l0,-9.68Z" style="fill:#d0d4fb;fill-rule:nonzero;"/><path id="path884" d="M182.499,20.634l0,-6.8l-22.28,0l0,6.8l7.52,0l0,21.56l7.24,0l0,-21.56l7.52,0Z" style="fill:#d0d4fb;fill-rule:nonzero;"/><path id="path886" d="M185.337,42.194l18.72,0l-0,-7.08l-11.52,0l-0,-21.24l-7.2,0l-0,28.32Z" style="fill:#d0d4fb;fill-rule:nonzero;"/><rect id="path888" x="206.899" y="13.874" width="7.16" height="28.32" style="fill:#d0d4fb;fill-rule:nonzero;"/><path id="path890" d="M218.54,42.194l7.16,0l-0,-11.32l-0.92,-5.48l0.2,-0.04l2.48,5.68l6.4,11.16l7.24,0l-0,-28.32l-7.12,0l-0,12.84c0.04,0 0.76,4.88 0.8,4.88l-0.2,0.04l-2.4,-5.68l-6.84,-12.08l-6.8,0l-0,28.32Z" style="fill:#d0d4fb;fill-rule:nonzero;"/></g></g><g id="Logo"><path d="M100,25c0,-13.798 -11.202,-25 -25,-25l-50,0c-13.798,0 -25,11.202 -25,25l0,50c0,13.798 11.202,25 25,25l50,0c13.798,0 25,-11.202 25,-25l0,-50Z" style="fill:#5865f2;"/><g transform="matrix(0.769231,0,0,0.769231,11.5385,11.5385)"><g id="polygon93" transform="matrix(0.82507,0,0,0.82507,37.1632,16.6)"><clipPath id="_clip1"><rect x="-0.216" y="-0" width="60.216" height="59.144"/></clipPath><g clip-path="url(#_clip1)"><path d="M-0.601,60.216l30.701,-30.316l29.9,-29.9l-29.074,0l-31.527,31.88l0,28.336Z" style="fill-opacity:0.2;fill-rule:nonzero;"/></g></g><g id="polygon931" serif:id="polygon93" transform="matrix(5.0521e-17,-0.82507,0.82507,5.0521e-17,36.985,90.9454)"><path d="M-0.601,60.216l30.701,-30.316l29.9,-29.9l-29.074,0l-31.527,31.88l0,28.336Z" style="fill-opacity:0.2;fill-rule:nonzero;"/></g><g transform="matrix(0.71424,0,0,1,-21.3992,9.3165)"><rect x="59.923" y="7.284" width="23.379" height="74.841" style="fill-opacity:0.2;"/></g></g><g transform="matrix(0.769231,0,0,0.769231,11.1103,11.5385)"><g id="polygon932" serif:id="polygon93" transform="matrix(5.0521e-17,-0.82507,0.82507,5.0521e-17,33.508,86.9248)"><path d="M-0.601,60.216l30.701,-30.316l29.9,-29.9l-29.074,0l-31.527,31.88l0,28.336Z" style="fill:#fff1cb;fill-rule:nonzero;"/></g><g id="polygon933" serif:id="polygon93" transform="matrix(0.82507,0,0,0.82507,33.6861,12.5794)"><path d="M-0.601,60.216l30.701,-30.316l29.9,-29.9l-29.074,0l-31.527,31.88l0,28.336Z" style="fill:#fff9e8;fill-rule:nonzero;"/></g><g transform="matrix(0.71424,0,0,1,-24.8762,5.29591)"><rect x="59.923" y="7.284" width="23.379" height="74.841" style="fill:#d0d4fb;"/></g></g></g></g></svg>