<?xml version="1.0" encoding="UTF-8" standalone="no"?><!DOCTYPE svg PUBLIC "-//W3C//DTD SVG 1.1//EN" "http://www.w3.org/Graphics/SVG/1.1/DTD/svg11.dtd"><svg width="100%" height="100%" viewBox="0 0 417 417" version="1.1" xmlns="http://www.w3.org/2000/svg" xmlns:xlink="http://www.w3.org/1999/xlink" xml:space="preserve" xmlns:serif="http://www.serif.com/" style="fill-rule:evenodd;clip-rule:evenodd;stroke-linejoin:round;stroke-miterlimit:2;"><g transform="matrix(4.16667,0,0,4.16667,0,0)"><g id="Square"><rect x="0" y="0" width="100" height="100" style="fill:#5865f2;"/></g><g id="Logo" transform="matrix(0.865793,0,0,0.865793,3.55167,3.35015)"><g transform="matrix(0.88847,0,0,0.88847,9.22483,9.45759)"><g id="polygon93" transform="matrix(0.82507,0,0,0.82507,37.1632,16.6)"><clipPath id="_clip1"><rect x="-0.216" y="-0" width="60.216" height="59.144"/></clipPath><g clip-path="url(#_clip1)"><path d="M-0.601,60.216l30.701,-30.316l29.9,-29.9l-29.074,0l-31.527,31.88l0,28.336Z" style="fill-opacity:0.2;fill-rule:nonzero;"/></g></g><g id="polygon931" serif:id="polygon93" transform="matrix(5.0521e-17,-0.82507,0.82507,5.0521e-17,36.985,90.9454)"><path d="M-0.601,60.216l30.701,-30.316l29.9,-29.9l-29.074,0l-31.527,31.88l0,28.336Z" style="fill-opacity:0.2;fill-rule:nonzero;"/></g><g transform="matrix(0.71424,0,0,1,-21.3992,9.3165)"><rect x="59.923" y="7.284" width="23.379" height="74.841" style="fill-opacity:0.2;"/></g></g><g transform="matrix(0.88847,0,0,0.88847,8.73029,9.45759)"><g id="polygon932" serif:id="polygon93" transform="matrix(5.0521e-17,-0.82507,0.82507,5.0521e-17,33.508,86.9248)"><path d="M-0.601,60.216l30.701,-30.316l29.9,-29.9l-29.074,0l-31.527,31.88l0,28.336Z" style="fill:#fff1cb;fill-rule:nonzero;"/></g><g id="polygon933" serif:id="polygon93" transform="matrix(0.82507,0,0,0.82507,33.6861,12.5794)"><path d="M-0.601,60.216l30.701,-30.316l29.9,-29.9l-29.074,0l-31.527,31.88l0,28.336Z" style="fill:#fff9e8;fill-rule:nonzero;"/></g><g transform="matrix(0.71424,0,0,1,-24.8762,5.29591)"><rect x="59.923" y="7.284" width="23.379" height="74.841" style="fill:#ced2fb;"/></g></g></g></g></svg>