<?xml version="1.0" encoding="UTF-8" standalone="no"?><!DOCTYPE svg PUBLIC "-//W3C//DTD SVG 1.1//EN" "http://www.w3.org/Graphics/SVG/1.1/DTD/svg11.dtd"><svg width="100%" height="100%" viewBox="0 0 417 417" version="1.1" xmlns="http://www.w3.org/2000/svg" xmlns:xlink="http://www.w3.org/1999/xlink" xml:space="preserve" xmlns:serif="http://www.serif.com/" style="fill-rule:evenodd;clip-rule:evenodd;stroke-linejoin:round;stroke-miterlimit:2;"><g transform="matrix(4.16667,0,0,4.16667,0,0)"><rect x="0" y="0" width="100" height="100" style="fill:#5865f2;"/><g transform="matrix(1,0,0,1,4.01947,4.03391)"><rect x="17.181" y="28.666" width="65.639" height="42.526" style="fill-opacity:0.2;"/></g><g id="Envelope"><g transform="matrix(1,0,0,1.25052,1.42109e-14,19.1227)"><rect x="17.181" y="7.688" width="65.639" height="34.007" style="fill:#fff;"/></g><g transform="matrix(4.74691,0,0,4.61285,-254.96,-13.6637)"><path d="M71.158,9.74l-0,8.671l-8.421,-0l8.421,-8.671Z" style="fill:#ced2fb;"/></g><g transform="matrix(-4.74691,0,0,4.61285,354.961,-13.6637)"><path d="M71.158,9.74l-0,8.671l-8.421,-0l8.421,-8.671Z" style="fill:#ced2fb;"/></g><g transform="matrix(-1,-1.22465e-16,1.22465e-16,-1,100,87.5736)"><path d="M50,28.737l30,30.1l-60,-0l30,-30.1Z" style="fill:#ced2fb;"/></g><g transform="matrix(1,0,0,1,2.63074,-2.63316)"><path d="M77.369,31.37l2.82,-0l0,2.526l-30.188,30.207l-2.631,-2.632l29.999,-30.101Z" style="fill:#fff1cb;"/></g></g></g></svg>