<?xml version="1.0" encoding="UTF-8" standalone="no"?><!DOCTYPE svg PUBLIC "-//W3C//DTD SVG 1.1//EN" "http://www.w3.org/Graphics/SVG/1.1/DTD/svg11.dtd"><svg width="100%" height="100%" viewBox="0 0 4853 1014" version="1.1" xmlns="http://www.w3.org/2000/svg" xmlns:xlink="http://www.w3.org/1999/xlink" xml:space="preserve" xmlns:serif="http://www.serif.com/" style="fill-rule:evenodd;clip-rule:evenodd;stroke-linejoin:round;stroke-miterlimit:2;"><g transform="matrix(4.16667,0,0,4.16667,0,0)"><g id="Background" transform="matrix(1,0,0,1,256,0)"><g transform="matrix(1,0,0,1,-256,0)"><rect x="0" y="0" width="1024" height="243.2" style="fill:#6d78f4;"/></g><g transform="matrix(1,0,0,1,-256,0)"><path d="M1164.72,0l-0,243.2l-450.248,0l64.873,-243.2l385.375,0Z" style="fill:#5865f2;"/></g></g><g id="Logo" transform="matrix(0.721981,0,0,0.721981,289.814,33.8071)"><g transform="matrix(1.61883,0,0,1.61883,-338.18,16.3763)"><circle cx="65" cy="65" r="65" style="fill:#5865f2;stroke:#627bd6;stroke-width:4.28px;"/></g><g transform="matrix(1.61883,0,0,1.61883,-313.898,40.6587)"><g id="polygon93" transform="matrix(0.82507,0,0,0.82507,37.1632,16.6)"><clipPath id="_clip1"><rect x="-0.216" y="-0" width="60.216" height="59.144"/></clipPath><g clip-path="url(#_clip1)"><path d="M-0.601,60.216l30.701,-30.316l29.9,-29.9l-29.074,0l-31.527,31.88l0,28.336Z" style="fill-opacity:0.2;fill-rule:nonzero;"/></g></g><g id="polygon931" serif:id="polygon93" transform="matrix(5.0521e-17,-0.82507,0.82507,5.0521e-17,36.985,90.9454)"><path d="M-0.601,60.216l30.701,-30.316l29.9,-29.9l-29.074,0l-31.527,31.88l0,28.336Z" style="fill-opacity:0.2;fill-rule:nonzero;"/></g><g transform="matrix(0.71424,0,0,1,-21.3992,9.3165)"><rect x="59.923" y="7.284" width="23.379" height="74.841" style="fill-opacity:0.2;"/></g></g><g transform="matrix(1.61883,0,0,1.61883,-314.799,40.6587)"><g id="polygon932" serif:id="polygon93" transform="matrix(5.0521e-17,-0.82507,0.82507,5.0521e-17,33.508,86.9248)"><path d="M-0.601,60.216l30.701,-30.316l29.9,-29.9l-29.074,0l-31.527,31.88l0,28.336Z" style="fill:#fff1cb;fill-rule:nonzero;"/></g><g id="polygon933" serif:id="polygon93" transform="matrix(0.82507,0,0,0.82507,33.6861,12.5794)"><path d="M-0.601,60.216l30.701,-30.316l29.9,-29.9l-29.074,0l-31.527,31.88l0,28.336Z" style="fill:#fff9e8;fill-rule:nonzero;"/></g><g transform="matrix(0.71424,0,0,1,-24.8762,5.29591)"><rect x="59.923" y="7.284" width="23.379" height="74.841" style="fill:#d0d4fb;"/></g></g></g><g transform="matrix(0.410293,0,0,0.410293,135.592,69.5292)"><g id="Text"><g transform="matrix(127.583,0,0,127.583,238.14,167.996)"><path d="M0.236,-0.446l-0,-0.262l-0.18,0l0,0.708l0.18,-0l-0,-0.245l0.006,-0.008l0.181,0.253l0.227,-0l-0.279,-0.366l0.28,-0.342l-0.223,0l-0.192,0.262Z" style="fill:#fff;fill-rule:nonzero;"/></g><g transform="matrix(127.583,0,0,127.583,314.434,167.996)"><path d="M0.039,-0.233c0,0.162 0.147,0.243 0.294,0.243c0.147,-0 0.293,-0.081 0.293,-0.243l-0,-0.242c-0,-0.162 -0.147,-0.243 -0.294,-0.243c-0.147,0 -0.293,0.08 -0.293,0.243l0,0.242Zm0.179,-0.242c-0,-0.052 0.056,-0.08 0.112,-0.08c0.058,-0 0.117,0.025 0.117,0.08l0,0.242c0,0.051 -0.057,0.077 -0.114,0.077c-0.057,0 -0.115,-0.025 -0.115,-0.077l-0,-0.242Z" style="fill:#fff;fill-rule:nonzero;"/></g><g transform="matrix(127.583,0,0,127.583,398.511,167.996)"><path d="M0.571,-0.539l-0,-0.17l-0.557,0l0,0.17l0.188,-0l0,0.539l0.181,-0l-0,-0.539l0.188,-0Z" style="fill:#fff;fill-rule:nonzero;"/></g><g transform="matrix(127.583,0,0,127.583,473.147,167.996)"><path d="M0.056,-0l0.468,-0l-0,-0.177l-0.288,0l-0,-0.531l-0.18,0l0,0.708Z" style="fill:#fff;fill-rule:nonzero;"/></g><g transform="matrix(127.583,0,0,127.583,541.915,167.996)"><rect x="0.056" y="-0.708" width="0.179" height="0.708" style="fill:#fff;fill-rule:nonzero;"/></g><g transform="matrix(127.583,0,0,127.583,579.041,167.996)"><path d="M0.056,-0l0.179,-0l-0,-0.283l-0.023,-0.137l0.005,-0.001l0.062,0.142l0.16,0.279l0.181,-0l-0,-0.708l-0.178,0l0,0.321c0.001,0 0.019,0.122 0.02,0.122l-0.005,0.001l-0.06,-0.142l-0.171,-0.302l-0.17,0l0,0.708Z" style="fill:#fff;fill-rule:nonzero;"/></g><g transform="matrix(127.583,0,0,127.583,688.508,167.996)"><path d="M0.056,-0.708l0,0.708l0.265,-0c0.142,0.001 0.275,-0.07 0.275,-0.233l-0,-0.238c-0,-0.165 -0.133,-0.237 -0.275,-0.237l-0.265,0Zm0.18,0.54l-0,-0.373l0.091,-0c0.06,-0 0.089,0.029 0.089,0.075l0,0.221c0,0.046 -0.028,0.077 -0.089,0.077l-0.091,0Z" style="fill:#fff;fill-rule:nonzero;"/></g><g transform="matrix(127.583,0,0,127.583,769.65,167.996)"><rect x="0.056" y="-0.708" width="0.179" height="0.708" style="fill:#fff;fill-rule:nonzero;"/></g><g transform="matrix(127.583,0,0,127.583,806.777,167.996)"><path d="M0.022,-0.118c0.066,0.085 0.156,0.128 0.241,0.128c0.13,-0 0.274,-0.075 0.28,-0.212c0.008,-0.174 -0.118,-0.218 -0.244,-0.241c-0.055,-0.012 -0.092,-0.032 -0.094,-0.066c0.003,-0.082 0.13,-0.085 0.204,-0.006l0.117,-0.09c-0.073,-0.089 -0.156,-0.113 -0.242,-0.113c-0.13,0 -0.256,0.073 -0.256,0.212c0,0.135 0.104,0.207 0.218,0.225c0.058,0.008 0.123,0.031 0.121,0.071c-0.005,0.076 -0.161,0.072 -0.232,-0.014l-0.113,0.106Z" style="fill:#fff;fill-rule:nonzero;"/></g><g transform="matrix(127.583,0,0,127.583,878.734,167.996)"><path d="M0.417,-0.221c-0.039,0.098 -0.199,0.074 -0.199,-0.011l-0,-0.244c-0,-0.088 0.158,-0.108 0.206,-0.02l0.146,-0.059c-0.057,-0.126 -0.162,-0.163 -0.249,-0.163c-0.142,0 -0.282,0.082 -0.282,0.242l0,0.244c0,0.161 0.14,0.242 0.279,0.242c0.089,-0 0.196,-0.044 0.255,-0.159l-0.156,-0.072Z" style="fill:#fff;fill-rule:nonzero;"/></g><g transform="matrix(127.583,0,0,127.583,952.987,167.996)"><path d="M0.039,-0.233c0,0.162 0.147,0.243 0.294,0.243c0.147,-0 0.293,-0.081 0.293,-0.243l-0,-0.242c-0,-0.162 -0.147,-0.243 -0.294,-0.243c-0.147,0 -0.293,0.08 -0.293,0.243l0,0.242Zm0.179,-0.242c-0,-0.052 0.056,-0.08 0.112,-0.08c0.058,-0 0.117,0.025 0.117,0.08l0,0.242c0,0.051 -0.057,0.077 -0.114,0.077c-0.057,0 -0.115,-0.025 -0.115,-0.077l-0,-0.242Z" style="fill:#fff;fill-rule:nonzero;"/></g><g transform="matrix(127.583,0,0,127.583,1037.83,167.996)"><path d="M0.433,-0l0.223,-0l-0.193,-0.243c0.086,-0.027 0.139,-0.101 0.139,-0.232c-0.004,-0.166 -0.117,-0.233 -0.263,-0.233l-0.283,0l0,0.708l0.181,-0l-0,-0.225l0.032,-0l0.164,0.225Zm-0.196,-0.379l-0,-0.162l0.105,-0c0.113,-0 0.113,0.162 0,0.162l-0.105,0Z" style="fill:#fff;fill-rule:nonzero;"/></g><g transform="matrix(127.583,0,0,127.583,1120.25,167.996)"><path d="M0.056,-0.708l0,0.708l0.265,-0c0.142,0.001 0.275,-0.07 0.275,-0.233l-0,-0.238c-0,-0.165 -0.133,-0.237 -0.275,-0.237l-0.265,0Zm0.18,0.54l-0,-0.373l0.091,-0c0.06,-0 0.089,0.029 0.089,0.075l0,0.221c0,0.046 -0.028,0.077 -0.089,0.077l-0.091,0Z" style="fill:#fff;fill-rule:nonzero;"/></g><g transform="matrix(127.583,0,0,127.583,1224.61,167.996)"><path d="M0.233,-0.708l-0.181,0l0,0.471c-0.001,0.332 0.564,0.332 0.565,0l-0,-0.471l-0.181,0l0,0.471c-0.001,0.114 -0.203,0.114 -0.203,0l-0,-0.471Z" style="fill:#fff;fill-rule:nonzero;"/></g><g transform="matrix(127.583,0,0,127.583,1309.71,167.996)"><path d="M0.565,-0.567c-0.049,-0.113 -0.154,-0.151 -0.246,-0.151c-0.14,0 -0.28,0.08 -0.28,0.24l0,0.243c0,0.163 0.14,0.245 0.28,0.245c0.142,-0 0.278,-0.082 0.278,-0.245l-0,-0.176l-0.285,0l-0,0.15l0.113,-0l0,0.026c0,0.11 -0.207,0.111 -0.207,-0l-0,-0.243c-0,-0.093 0.158,-0.115 0.197,-0.02l0.15,-0.069Z" style="fill:#fff;fill-rule:nonzero;"/></g></g></g><g id="Discord" transform="matrix(1.06801,0,0,1.06801,193.317,-8.2701)"><g transform="matrix(1.13172,0,0,1.13172,-44.7833,-16.0171)"><g transform="matrix(0.306549,0,0,0.306549,529.251,79.894)"><path d="M142.8,120.1c-5.7,-0 -10.2,4.9 -10.2,11c0,6.1 4.6,11 10.2,11c5.7,-0 10.2,-4.9 10.2,-11c0,-6.1 -4.6,-11 -10.2,-11Zm-36.5,-0c-5.7,-0 -10.2,4.9 -10.2,11c-0,6.1 4.6,11 10.2,11c5.7,-0 10.2,-4.9 10.2,-11c0.1,-6.1 -4.5,-11 -10.2,-11Z" style="fill:#fff;fill-rule:nonzero;"/></g><g transform="matrix(0.306549,0,0,0.306549,529.251,79.894)"><path d="M191.4,36.9l-134,0c-11.3,0 -20.5,9.2 -20.5,20.5l0,134c0,11.3 9.2,20.5 20.5,20.5l113.4,0l-5.3,-18.3l12.8,11.8l12.1,11.1l21.6,18.7l0,-177.8c-0.1,-11.3 -9.3,-20.5 -20.6,-20.5Zm-38.6,129.5c0,0 -3.6,-4.3 -6.6,-8c13.1,-3.7 18.1,-11.8 18.1,-11.8c-4.1,2.7 -8,4.6 -11.5,5.9c-5,2.1 -9.8,3.4 -14.5,4.3c-9.6,1.8 -18.4,1.3 -25.9,-0.1c-5.7,-1.1 -10.6,-2.6 -14.7,-4.3c-2.3,-0.9 -4.8,-2 -7.3,-3.4c-0.3,-0.2 -0.6,-0.3 -0.9,-0.5c-0.2,-0.1 -0.3,-0.2 -0.4,-0.2c-1.8,-1 -2.8,-1.7 -2.8,-1.7c0,0 4.8,7.9 17.5,11.7c-3,3.8 -6.7,8.2 -6.7,8.2c-22.1,-0.7 -30.5,-15.1 -30.5,-15.1c0,-31.9 14.4,-57.8 14.4,-57.8c14.4,-10.7 28,-10.4 28,-10.4l1,1.2c-18,5.1 -26.2,13 -26.2,13c0,0 2.2,-1.2 5.9,-2.8c10.7,-4.7 19.2,-5.9 22.7,-6.3c0.6,-0.1 1.1,-0.2 1.7,-0.2c6.1,-0.8 13,-1 20.2,-0.2c9.5,1.1 19.7,3.9 30.1,9.5c0,0 -7.9,-7.5 -24.9,-12.6l1.4,-1.6c0,0 13.7,-0.3 28,10.4c0,0 14.4,25.9 14.4,57.8c0,-0.1 -8.4,14.3 -30.5,15Zm151,-86.7l-33.2,0l0,37.3l22.1,19.9l0,-36.2l11.8,0c7.5,0 11.2,3.6 11.2,9.4l0,27.7c0,5.8 -3.5,9.7 -11.2,9.7l-34,0l0,21.1l33.2,0c17.8,0.1 34.5,-8.8 34.5,-29.2l0,-29.8c0.1,-20.8 -16.6,-29.9 -34.4,-29.9Zm174,59.7l-0,-30.6c-0,-11 19.8,-13.5 25.8,-2.5l18.3,-7.4c-7.2,-15.8 -20.3,-20.4 -31.2,-20.4c-17.8,0 -35.4,10.3 -35.4,30.3l-0,30.6c-0,20.2 17.6,30.3 35,30.3c11.2,0 24.6,-5.5 32,-19.9l-19.6,-9c-4.8,12.3 -24.9,9.3 -24.9,-1.4Zm-60.5,-26.4c-6.9,-1.5 -11.5,-4 -11.8,-8.3c0.4,-10.3 16.3,-10.7 25.6,-0.8l14.7,-11.3c-9.2,-11.2 -19.6,-14.2 -30.3,-14.2c-16.3,0 -32.1,9.2 -32.1,26.6c-0,16.9 13,26 27.3,28.2c7.3,1 15.4,3.9 15.2,8.9c-0.6,9.5 -20.2,9 -29.1,-1.8l-14.2,13.3c8.3,10.7 19.6,16.1 30.2,16.1c16.3,0 34.4,-9.4 35.1,-26.6c1,-21.7 -14.8,-27.2 -30.6,-30.1Zm-67,55.5l22.4,0l-0,-88.8l-22.4,0l-0,88.8Zm377.7,-88.8l-33.2,0l-0,37.3l22.1,19.9l-0,-36.2l11.8,0c7.5,0 11.2,3.6 11.2,9.4l-0,27.7c-0,5.8 -3.5,9.7 -11.2,9.7l-34,0l-0,21.1l33.3,0c17.8,0.1 34.5,-8.8 34.5,-29.2l0,-29.8c0,-20.8 -16.7,-29.9 -34.5,-29.9Zm-162.9,-1.2c-18.4,0 -36.7,10 -36.7,30.5l0,30.3c0,20.3 18.4,30.5 36.9,30.5c18.4,0 36.7,-10.2 36.7,-30.5l0,-30.3c0,-20.4 -18.5,-30.5 -36.9,-30.5Zm14.4,60.8c0,6.4 -7.2,9.7 -14.3,9.7c-7.2,0 -14.4,-3.1 -14.4,-9.7l0,-30.3c0,-6.5 7,-10 14,-10c7.3,0 14.7,3.1 14.7,10l0,30.3Zm102.9,-30.3c-0.5,-20.8 -14.7,-29.2 -33,-29.2l-35.5,0l-0,88.8l22.7,0l-0,-28.2l4,0l20.6,28.2l28,0l-24.2,-30.5c10.7,-3.4 17.4,-12.7 17.4,-29.1Zm-32.6,12l-13.2,0l-0,-20.3l13.2,0c14.1,0 14.1,20.3 -0,20.3Z" style="fill:#fff;fill-rule:nonzero;"/></g></g><g transform="matrix(0.93632,0,0,0.93632,-174.511,8.02679)"><path d="M1091.55,102.726l13.947,14.424l-13.898,14.419" style="fill:none;stroke:#fff;stroke-width:5px;stroke-linecap:round;stroke-miterlimit:1.5;"/></g></g></g></svg>