<?xml version="1.0" encoding="UTF-8" standalone="no"?><!DOCTYPE svg PUBLIC "-//W3C//DTD SVG 1.1//EN" "http://www.w3.org/Graphics/SVG/1.1/DTD/svg11.dtd"><svg width="100%" height="100%" viewBox="0 0 1299 417" version="1.1" xmlns="http://www.w3.org/2000/svg" xmlns:xlink="http://www.w3.org/1999/xlink" xml:space="preserve" xmlns:serif="http://www.serif.com/" style="fill-rule:evenodd;clip-rule:evenodd;stroke-linejoin:round;stroke-miterlimit:2;"><g id="Text"><g id="Discord"><path id="path892" d="M460.063,234.976l0,147.502l55.172,0c29.564,0.208 57.254,-14.584 57.254,-48.542l0,-49.584c0,-34.376 -27.69,-49.376 -57.254,-49.376l-55.172,0Zm37.476,112.501l0,-77.709l18.945,0c12.492,0 18.53,6.042 18.53,15.625l0,46.043c0,9.583 -5.83,16.041 -18.53,16.041l-18.945,0Z" style="fill:#cbd6ff;fill-rule:nonzero;"/><rect id="path894" x="592.625" y="234.976" width="37.267" height="147.502" style="fill:#cbd6ff;fill-rule:nonzero;"/><path id="path896" d="M646.135,357.894c13.74,17.709 32.478,26.667 50.175,26.667c27.065,0 57.045,-15.625 58.294,-44.167c1.666,-36.25 -24.567,-45.417 -50.799,-50.209c-11.451,-2.5 -19.154,-6.667 -19.571,-13.75c0.625,-17.084 27.066,-17.709 42.472,-1.25l24.359,-18.75c-15.198,-18.542 -32.479,-23.542 -50.383,-23.542c-27.066,0 -53.298,15.208 -53.298,44.167c0,28.125 21.652,43.125 45.386,46.876c12.076,1.666 25.608,6.458 25.192,14.791c-1.041,15.834 -33.52,15.001 -48.301,-2.916l-23.526,22.083Z" style="fill:#cbd6ff;fill-rule:nonzero;"/><path id="path898" d="M845.888,336.436c-8.12,20.417 -41.431,15.417 -41.431,-2.292l0,-50.834c0,-18.334 32.895,-22.5 42.888,-4.167l30.397,-12.291c-11.867,-26.251 -33.728,-33.959 -51.841,-33.959c-29.564,0 -58.711,17.083 -58.711,50.417l0,50.834c0,33.542 29.147,50.417 58.087,50.417c18.529,0 40.806,-9.167 53.089,-33.125l-32.478,-15Z" style="fill:#cbd6ff;fill-rule:nonzero;"/><path id="path900" d="M888.366,333.936c0,33.75 30.605,50.625 61.21,50.625c30.604,0 61.001,-16.875 61.001,-50.625l0,-50.418c0,-33.75 -30.605,-50.625 -61.21,-50.625c-30.604,0 -61.001,16.667 -61.001,50.625l0,50.418Zm37.267,-50.418c0,-10.833 11.659,-16.666 23.318,-16.666c12.075,0 24.359,5.208 24.359,16.666l0,50.418c0,10.625 -11.867,16.042 -23.734,16.042c-11.868,0 -23.943,-5.209 -23.943,-16.042l0,-50.418Z" style="fill:#cbd6ff;fill-rule:nonzero;"/><path id="path902" d="M1108.65,382.478l46.427,0l-40.182,-50.626c17.905,-5.625 28.939,-21.042 28.939,-48.334c-0.832,-34.583 -24.358,-48.542 -54.755,-48.542l-58.919,0l0,147.502l37.683,0l0,-46.876l6.663,0l34.144,46.876Zm-40.807,-78.959l0,-33.751l21.861,0c23.526,0 23.526,33.751 0,33.751l-21.861,0Z" style="fill:#cbd6ff;fill-rule:nonzero;"/><path id="path904" d="M1164.76,234.976l0,147.502l55.172,0c29.563,0.208 57.253,-14.584 57.253,-48.542l0,-49.584c0,-34.376 -27.69,-49.376 -57.253,-49.376l-55.172,0Zm37.475,112.501l0,-77.709l18.946,0c12.491,0 18.529,6.042 18.529,15.625l0,46.043c0,9.583 -5.829,16.041 -18.529,16.041l-18.946,0Z" style="fill:#cbd6ff;fill-rule:nonzero;"/></g><g id="Kotlin"><path id="path880" d="M505.516,100.79l0,-66.159l-45.454,0l0,178.783l45.454,0l0,-61.867l1.515,-2.021l45.706,63.888l57.321,0l-70.452,-92.422l70.705,-86.361l-56.312,0l-48.483,66.159Z" style="fill:#cbd6ff;fill-rule:nonzero;"/><path id="path882" d="M606.689,154.577c0,40.908 37.12,61.362 74.24,61.362c37.12,0 73.988,-20.454 73.988,-61.362l0,-61.11c0,-40.908 -37.12,-61.362 -74.24,-61.362c-37.12,0 -73.988,20.202 -73.988,61.362l0,61.11Zm45.201,-61.11c0,-13.131 14.141,-20.201 28.282,-20.201c14.646,0 29.544,6.313 29.544,20.201l0,61.11c0,12.878 -14.393,19.444 -28.787,19.444c-14.393,0 -29.039,-6.313 -29.039,-19.444l0,-61.11Z" style="fill:#cbd6ff;fill-rule:nonzero;"/><path id="path884" d="M907.237,77.306l0,-42.928l-140.653,0l0,42.928l47.474,0l0,136.108l45.705,0l0,-136.108l47.474,0Z" style="fill:#cbd6ff;fill-rule:nonzero;"/><path id="path886" d="M925.15,213.414l118.178,0l0,-44.696l-72.725,0l0,-134.087l-45.453,0l0,178.783Z" style="fill:#cbd6ff;fill-rule:nonzero;"/><rect id="path888" x="1061.27" y="34.631" width="45.201" height="178.783" style="fill:#cbd6ff;fill-rule:nonzero;"/><path id="path890" d="M1134.76,213.414l45.201,0l0,-71.463l-5.808,-34.595l1.262,-0.253l15.656,35.858l40.403,70.453l45.706,0l0,-178.783l-44.948,0l0,81.058c0.252,0 4.798,30.807 5.05,30.807l-1.262,0.253l-15.151,-35.858l-43.181,-76.26l-42.928,0l0,178.783Z" style="fill:#cbd6ff;fill-rule:nonzero;"/></g></g><g id="Logo"><path d="M416.667,104.167c0,-57.491 -46.676,-104.167 -104.167,-104.167l-208.333,0c-57.491,0 -104.167,46.676 -104.167,104.167l0,208.333c0,57.491 46.676,104.167 104.167,104.167l208.333,0c57.491,0 104.167,-46.676 104.167,-104.167l0,-208.333Z" style="fill:#7289da;"/><g><clipPath id="_clip1"><rect id="polygon93" x="166.619" y="101.282" width="159.238" height="156.403"/></clipPath><g clip-path="url(#_clip1)"><path d="M165.601,260.52l81.187,-80.169l79.069,-79.069l-76.885,0l-83.371,84.305l0,74.933Z" style="fill-opacity:0.2;fill-rule:nonzero;"/></g><path id="polygon931" serif:id="polygon93" d="M325.857,341.158l-80.169,-81.188l-79.069,-79.069l0,76.886l84.305,83.371l74.933,0Z" style="fill-opacity:0.2;fill-rule:nonzero;"/><rect x="116.667" y="101.282" width="53.52" height="239.876" style="fill-opacity:0.2;"/></g><g><path id="polygon932" serif:id="polygon93" d="M312.929,328.271l-80.17,-81.187l-79.069,-79.069l0,76.885l84.306,83.371l74.933,0Z" style="fill:#fff1cb;fill-rule:nonzero;"/><path id="polygon933" serif:id="polygon93" d="M152.672,247.634l81.187,-80.169l79.07,-79.069l-76.886,0l-83.371,84.305l0,74.933Z" style="fill:#fff9e8;fill-rule:nonzero;"/><rect x="103.738" y="88.396" width="53.52" height="239.876" style="fill:#cbd6ff;"/></g></g></svg>