<?xml version="1.0" encoding="UTF-8" standalone="no"?><!DOCTYPE svg PUBLIC "-//W3C//DTD SVG 1.1//EN" "http://www.w3.org/Graphics/SVG/1.1/DTD/svg11.dtd"><svg width="100%" height="100%" viewBox="0 0 417 417" version="1.1" xmlns="http://www.w3.org/2000/svg" xmlns:xlink="http://www.w3.org/1999/xlink" xml:space="preserve" xmlns:serif="http://www.serif.com/" style="fill-rule:evenodd;clip-rule:evenodd;stroke-linejoin:round;stroke-miterlimit:2;"><circle id="Background" cx="208.333" cy="208.333" r="208.333" style="fill:#2c2f33;"/><path id="Shadow" d="M170.187,261.315l0,79.843l-53.52,0l0,-239.876l53.52,0l0,79.668l78.785,-79.668l76.885,0l-79.069,79.069l-40.614,40.105l39.514,39.514l80.169,81.188l-74.933,0l-80.737,-79.843Z" style="fill-opacity:0.2;fill-rule:nonzero;"/><g id="Logo"><path d="M244.646,328.271l34.356,-34.357l33.927,34.357l-68.283,0Z" style="fill:#9e51ab;"/><path d="M215.106,305.69l38.019,-37.982l25.877,26.206l-34.356,34.357l-6.651,0l-22.889,-22.581Z" style="fill:#4c82ff;"/><path d="M140.479,328.271l16.779,-16.779l0,16.779l-16.779,0Z" style="fill:#4ca667;"/><path d="M188.911,279.8l38.251,-38.276l25.963,26.184l-38.019,37.982l-26.195,-25.89Z" style="fill:#4ca667;"/><path d="M103.738,312.929l53.52,-53.521l0,52.084l-16.779,16.779l-36.741,0l0,-15.342Z" style="fill:#fff24c;"/><path d="M162.76,253.869l38.41,-38.374l25.992,26.029l-38.251,38.276l-26.151,-25.931Z" style="fill:#fff24c;"/><path d="M103.738,260.845l172.45,-172.449l36.741,0l-119.684,119.174l7.895,7.894l-38.38,38.405l-5.502,-5.44l0,10.945l-53.52,53.555l0,-52.084Z" style="fill:#ffae4c;"/><path d="M103.738,208.762l53.52,-53.52l0,12.821l78.785,-79.667l40.018,0l-172.323,172.449l0,-52.083Z" style="fill:#ec4e4e;"/><path d="M103.738,156.679l53.52,-53.521l0,52.016l-53.52,53.554l0,-52.049Z" style="fill:#a47637;"/><path d="M103.738,88.396l53.52,0l0,14.678l-53.52,53.554l0,-68.232Z" style="fill:#262626;"/></g></svg>