<?xml version="1.0" encoding="UTF-8" standalone="no"?><!DOCTYPE svg PUBLIC "-//W3C//DTD SVG 1.1//EN" "http://www.w3.org/Graphics/SVG/1.1/DTD/svg11.dtd"><svg width="100%" height="100%" viewBox="0 0 417 417" version="1.1" xmlns="http://www.w3.org/2000/svg" xmlns:xlink="http://www.w3.org/1999/xlink" xml:space="preserve" xmlns:serif="http://www.serif.com/" style="fill-rule:evenodd;clip-rule:evenodd;stroke-linejoin:round;stroke-miterlimit:2;"><rect id="Background" x="0" y="0" width="416.667" height="416.667" style="fill:#4e5e94;"/><rect id="Shadow" x="88.335" y="136.25" width="273.496" height="177.192" style="fill-opacity:0.2;"/><g id="Envelope"><path d="M275.784,297.133l69.298,-69.298l0,69.095l-69.298,0.203Z" style="fill:#9e51ab;"/><path d="M223.903,296.93l121.179,-121.178l0,51.978l-69.298,69.403l-51.881,-0.203Z" style="fill:#4c82ff;"/><path d="M171.82,296.93l173.262,-173.262l0,51.949l-121.179,121.313l-52.083,0Z" style="fill:#4ca667;"/><path d="M119.736,296.93l177.251,-177.25l48.095,0.057l0,3.797l-173.288,173.396l-52.058,0Z" style="fill:#fff24c;"/><path d="M71.601,292.982l173.303,-173.302l51.948,0l-177.127,177.25l-48.113,0l-0.011,-3.948Z" style="fill:#ffae4c;"/><path d="M71.587,240.913l121.042,-121.042l52.14,-0.191l-173.168,173.302l-0.014,-52.069Z" style="fill:#ec4e4e;"/><path d="M71.587,188.829l69.036,-69.149l52.006,0.057l-121.042,121.176l0,-52.084Z" style="fill:#a47637;"/><path d="M71.601,119.737l69.022,0l-69.022,69.079l0,-69.079Z" style="fill:#262626;"/></g><path id="Gap" d="M208.333,267.04c0.001,-7.296 0.001,-14.592 0.002,-21.888l124.998,-125.429l11.749,0.014l0,10.527l-136.749,136.833l0,0l-136.732,-136.89l-0.014,-10.47l12.41,0l124.336,125.416l0,21.887Z" style="fill-opacity:0.4;"/></svg>