<?xml version="1.0" encoding="UTF-8" standalone="no"?><!DOCTYPE svg PUBLIC "-//W3C//DTD SVG 1.1//EN" "http://www.w3.org/Graphics/SVG/1.1/DTD/svg11.dtd"><svg width="100%" height="100%" viewBox="0 0 4853 1014" version="1.1" xmlns="http://www.w3.org/2000/svg" xmlns:xlink="http://www.w3.org/1999/xlink" xml:space="preserve" xmlns:serif="http://www.serif.com/" style="fill-rule:evenodd;clip-rule:evenodd;stroke-linejoin:round;stroke-miterlimit:2;"><g id="Background"><rect x="0" y="0" width="4266.67" height="1013.33" style="fill:#2c2f33;"/><path d="M4852.98,0l0,1013.33l-1876.03,0l270.302,-1013.33l1605.73,0Z" style="fill:#627bd6;"/></g><g id="Logo"><circle cx="506.766" cy="506.667" r="316.54" style="fill:#2c2f33;stroke:#484b53;stroke-width:20.83px;"/><path id="Shadow" d="M448.838,587.41l0,121.264l-81.285,0l0,-364.32l81.285,0l0,120.999l119.658,-120.999l116.773,0l-120.09,120.09l-61.684,60.91l60.014,60.014l121.76,123.306l-113.808,0l-122.623,-121.264Z" style="fill-opacity:0.2;fill-rule:nonzero;"/><g id="Logo1" serif:id="Logo"><path d="M561.926,689.103l52.18,-52.181l51.527,52.181l-103.707,0Z" style="fill:#9e51ab;"/><path d="M517.061,654.806l57.743,-57.686l39.302,39.802l-52.18,52.181l-10.101,-0.001l-34.764,-34.296Z" style="fill:#4c82ff;"/><path d="M403.718,689.103l25.485,-25.485l0,25.485l-25.485,0Z" style="fill:#4ca667;"/><path d="M477.277,615.486l58.095,-58.133l39.432,39.767l-57.743,57.686l-39.784,-39.32Z" style="fill:#4ca667;"/><path d="M347.917,665.801l81.286,-81.286l0,79.103l-25.485,25.485l-55.801,0l0,-23.302Z" style="fill:#fff24c;"/><path d="M437.558,576.102l58.338,-58.283l39.476,39.534l-58.095,58.133l-39.719,-39.384Z" style="fill:#fff24c;"/><path d="M347.917,586.697l261.915,-261.915l55.801,0l-181.774,181.001l11.99,11.99l-58.291,58.329l-8.355,-8.263l0,16.624l-81.286,81.338l0,-79.104Z" style="fill:#ffae4c;"/><path d="M347.917,507.593l81.286,-81.285l0,19.473l119.657,-120.999l60.778,0l-261.721,261.915l0,-79.104Z" style="fill:#ec4e4e;"/><path d="M347.917,428.49l81.286,-81.286l0,79l-81.286,81.339l0,-79.053Z" style="fill:#a47637;"/><path d="M347.917,324.782l81.286,0l0,22.294l-81.286,81.337l0,-103.631Z" style="fill:#262626;"/></g></g><g id="Text"><text x="972.078px" y="576.904px" style="font-family:'UniSansHeavyCAPS', 'Uni Sans';font-weight:900;font-size:218.11px;fill:#fff;">K<tspan x="1102.51px 1246.24px " y="576.904px 576.904px ">ot</tspan>lin Discord UG</text></g><g id="Discord"><g><path d="M3492.08,482.042c-8.8,0 -15.747,7.565 -15.747,16.983c0,9.417 7.101,16.982 15.747,16.982c8.8,0 15.747,-7.565 15.747,-16.982c0,-9.418 -7.102,-16.983 -15.747,-16.983Zm-56.35,0c-8.8,0 -15.748,7.565 -15.748,16.983c0,9.417 7.102,16.982 15.748,16.982c8.799,0 15.747,-7.565 15.747,-16.982c0.154,-9.418 -6.948,-16.983 -15.747,-16.983Z" style="fill:#fff;fill-rule:nonzero;"/><path d="M3567.11,353.595l-206.875,0c-17.446,0 -31.649,14.203 -31.649,31.648l0,206.875c0,17.446 14.203,31.649 31.649,31.649l175.072,0l-8.183,-28.252l19.761,18.217l18.681,17.137l33.347,28.87l0,-274.496c-0.154,-17.445 -14.358,-31.648 -31.803,-31.648Zm-59.593,199.927c0,0 -5.558,-6.638 -10.189,-12.35c20.224,-5.713 27.944,-18.218 27.944,-18.218c-6.33,4.169 -12.351,7.102 -17.755,9.109c-7.719,3.242 -15.129,5.249 -22.385,6.638c-14.821,2.779 -28.407,2.007 -39.986,-0.154c-8.8,-1.698 -16.365,-4.014 -22.695,-6.638c-3.55,-1.39 -7.41,-3.088 -11.27,-5.25c-0.463,-0.308 -0.926,-0.463 -1.389,-0.771c-0.309,-0.155 -0.463,-0.309 -0.618,-0.309c-2.778,-1.544 -4.322,-2.625 -4.322,-2.625c0,0 7.41,12.197 27.017,18.063c-4.632,5.867 -10.344,12.66 -10.344,12.66c-34.119,-1.081 -47.087,-23.312 -47.087,-23.312c0,-49.249 22.231,-89.235 22.231,-89.235c22.232,-16.519 43.228,-16.056 43.228,-16.056l1.544,1.853c-27.789,7.874 -40.449,20.07 -40.449,20.07c0,0 3.397,-1.853 9.109,-4.323c16.519,-7.256 29.642,-9.108 35.045,-9.726c0.926,-0.154 1.698,-0.309 2.625,-0.309c9.417,-1.235 20.07,-1.544 31.185,-0.308c14.667,1.698 30.414,6.021 46.47,14.666c0,0 -12.196,-11.579 -38.442,-19.452l2.162,-2.471c0,0 21.15,-0.463 43.227,16.056c0,0 22.232,39.986 22.232,89.235c0,-0.155 -12.969,22.077 -47.088,23.157Zm233.121,-133.851l-51.256,0l0,57.585l34.119,30.723l0,-55.887l18.217,0c11.579,0 17.292,5.558 17.292,14.512l0,42.764c0,8.955 -5.404,14.976 -17.292,14.976l-52.49,0l0,32.575l51.255,0c27.481,0.154 53.263,-13.586 53.263,-45.08l0,-46.007c0.154,-32.112 -25.628,-46.161 -53.108,-46.161Zm268.629,92.168l0,-47.242c0,-16.982 30.568,-20.842 39.831,-3.86l28.252,-11.424c-11.115,-24.393 -31.34,-31.495 -48.168,-31.495c-27.48,0 -54.652,15.902 -54.652,46.779l0,47.242c0,31.185 27.172,46.778 54.035,46.778c17.291,0 37.978,-8.491 49.403,-30.722l-30.26,-13.895c-7.41,18.989 -38.441,14.358 -38.441,-2.161Zm-93.403,-40.758c-10.652,-2.316 -17.754,-6.175 -18.217,-12.814c0.617,-15.901 25.164,-16.519 39.522,-1.235l22.695,-17.445c-14.204,-17.291 -30.26,-21.923 -46.779,-21.923c-25.164,0 -49.557,14.203 -49.557,41.066c0,26.091 20.07,40.14 42.147,43.537c11.27,1.544 23.775,6.021 23.466,13.74c-0.926,14.666 -31.185,13.895 -44.926,-2.779l-21.922,20.533c12.814,16.519 30.259,24.856 46.624,24.856c25.164,0 53.108,-14.512 54.189,-41.066c1.544,-33.502 -22.849,-41.993 -47.242,-46.47Zm-103.437,85.683l34.582,0l0,-137.093l-34.582,0l0,137.093Zm583.11,-137.093l-51.256,0l0,57.585l34.119,30.723l0,-55.887l18.217,0c11.579,0 17.291,5.558 17.291,14.512l0,42.764c0,8.955 -5.403,14.976 -17.291,14.976l-52.49,0l0,32.575l51.41,0c27.48,0.154 53.262,-13.586 53.262,-45.08l0,-46.007c0,-32.112 -25.782,-46.161 -53.262,-46.161Zm-251.493,-1.853c-28.406,0 -56.659,15.439 -56.659,47.088l0,46.778c0,31.34 28.407,47.087 56.968,47.087c28.407,0 56.659,-15.747 56.659,-47.087l0,-46.778c0,-31.495 -28.561,-47.088 -56.968,-47.088Zm22.232,93.866c0,9.881 -11.116,14.975 -22.077,14.975c-11.116,0 -22.232,-4.785 -22.232,-14.975l0,-46.778c0,-10.035 10.807,-15.439 21.614,-15.439c11.27,0 22.695,4.786 22.695,15.439l0,46.778Zm158.861,-46.778c-0.772,-32.112 -22.694,-45.081 -50.947,-45.081l-54.806,0l0,137.094l35.045,0l0,-43.537l6.176,0l31.803,43.537l43.227,0l-37.361,-47.087c16.519,-5.25 26.863,-19.607 26.863,-44.926Zm-50.329,18.526l-20.379,0l0,-31.34l20.379,0c21.768,0 21.768,31.34 0,31.34Z" style="fill:#fff;fill-rule:nonzero;"/></g><path d="M4577.03,429.284l58.113,60.102l-57.908,60.08" style="fill:none;stroke:#fff;stroke-width:20.83px;stroke-linecap:round;stroke-miterlimit:1.5;"/></g></svg>